<svg width="32" height="32" viewBox="0 0 32 32" fill="none" xmlns="http://www.w3.org/2000/svg">
<path d="M3.7777 26.9328C3.5322 27.1576 3.1451 27.0744 3.07604 26.7488C3.02535 26.5097 3 26.2308 3 25.9121V14.9151C3 14.5698 3.02535 14.2743 3.07604 14.0286C3.14388 13.7409 3.4603 13.6719 3.6902 13.8577L10.7827 19.59C11.0662 19.819 11.0793 20.2466 10.8106 20.4927L3.7777 26.9328ZM6.08514 29C5.68682 29 5.33196 28.9601 5.02055 28.8805C5.00036 28.8752 4.9804 28.8698 4.96066 28.8642C4.58651 28.7596 4.53839 28.3066 4.82475 28.044L12.147 21.3298C12.3651 21.1298 12.6971 21.1203 12.9264 21.3075L14.113 22.2763C14.4317 22.5287 14.7576 22.7212 15.0907 22.854C15.4238 22.9802 15.7606 23.0433 16.101 23.0433C16.4413 23.0433 16.7781 22.9802 17.1112 22.854C17.4516 22.7212 17.7811 22.5287 18.0998 22.2763L19.2864 21.3075C19.5157 21.1203 19.8477 21.1298 20.0658 21.3298L27.388 28.044C27.6744 28.3066 27.6257 28.7585 27.2512 28.8619C27.2282 28.8682 27.205 28.8744 27.1814 28.8805C26.8772 28.9601 26.526 29 26.1277 29H6.08514ZM29.1259 26.7488C29.0582 27.0681 28.6785 27.1557 28.4378 26.9353L21.4022 20.4927C21.1334 20.2466 21.1466 19.819 21.43 19.59L28.5259 13.8551C28.75 13.674 29.0598 13.7482 29.1259 14.0286C29.1838 14.2743 29.2128 14.5698 29.2128 14.9151V25.9121C29.2128 26.2308 29.1838 26.5097 29.1259 26.7488Z" fill="#2845C1"/>
<path d="M7.76595 14.9183L4.4963 12.2497C3.73691 11.6299 3.73691 10.4695 4.4963 9.84969L14.786 1.4515C15.5236 0.849498 16.583 0.849499 17.3206 1.45151L27.6103 9.84969C28.3697 10.4695 28.3697 11.6299 27.6103 12.2497L24.4468 14.8316V11.3446C24.4468 10.2377 23.5495 9.34044 22.4426 9.34044H9.77015C8.66326 9.34044 7.76595 10.2377 7.76595 11.3446V14.9183Z" fill="#FBC63A"/>
<rect x="3.92676" y="23" width="24" height="9" rx="4.5" fill="#ECF1F7"/>
<rect x="3.92676" y="23" width="24" height="9" rx="4.5" fill="url(#paint0_linear_1361_710)" fill-opacity="0.1"/>
<path d="M8.26921 29.7362C8.21933 29.7362 8.19439 29.7362 8.17534 29.7265C8.15858 29.718 8.14495 29.7044 8.13642 29.6876C8.12671 29.6686 8.12671 29.6436 8.12671 29.5937V25.2425C8.12671 25.1926 8.12671 25.1677 8.13642 25.1486C8.14495 25.1318 8.15858 25.1182 8.17534 25.1097C8.19439 25.1 8.21933 25.1 8.26921 25.1H9.4911C10.4581 25.1 11.0476 25.5768 11.0476 26.3584C11.0476 26.648 10.9462 26.9064 10.7525 27.1068C10.6839 27.1777 10.6497 27.2131 10.6439 27.2364C10.6377 27.2615 10.639 27.274 10.6505 27.2972C10.661 27.3187 10.7007 27.3451 10.78 27.3978C11.1248 27.6275 11.3125 27.9699 11.3125 28.3719C11.3125 29.2196 10.6568 29.7362 9.59044 29.7362H8.26921ZM9.51097 25.8815H9.20971C9.15983 25.8815 9.13489 25.8815 9.11584 25.8912C9.09908 25.8998 9.08545 25.9134 9.07692 25.9301C9.06721 25.9492 9.06721 25.9741 9.06721 26.024V26.7855C9.06721 26.8354 9.06721 26.8603 9.07692 26.8794C9.08545 26.8961 9.09908 26.9097 9.11584 26.9183C9.13489 26.928 9.15983 26.928 9.20971 26.928H9.51097C9.86862 26.928 10.0806 26.7359 10.0806 26.3981C10.0806 26.0736 9.86862 25.8815 9.51097 25.8815ZM9.64343 27.7095H9.20971C9.15983 27.7095 9.13489 27.7095 9.11584 27.7192C9.09908 27.7278 9.08545 27.7414 9.07692 27.7582C9.06721 27.7772 9.06721 27.8022 9.06721 27.852V28.8122C9.06721 28.8621 9.06721 28.887 9.07692 28.9061C9.08545 28.9228 9.09908 28.9365 9.11584 28.945C9.13489 28.9547 9.15983 28.9547 9.20971 28.9547H9.64343C10.0806 28.9547 10.3455 28.7229 10.3455 28.3321C10.3455 27.9347 10.0806 27.7095 9.64343 27.7095Z" fill="#2845C1"/>
<path d="M12.3539 29.7362C12.304 29.7362 12.2791 29.7362 12.26 29.7265C12.2433 29.718 12.2296 29.7044 12.2211 29.6876C12.2114 29.6686 12.2114 29.6436 12.2114 29.5937V25.2425C12.2114 25.1926 12.2114 25.1677 12.2211 25.1486C12.2296 25.1318 12.2433 25.1182 12.26 25.1097C12.2791 25.1 12.304 25.1 12.3539 25.1H14.7712C14.821 25.1 14.846 25.1 14.865 25.1097C14.8818 25.1182 14.8954 25.1318 14.904 25.1486C14.9137 25.1677 14.9137 25.1926 14.9137 25.2425V25.739C14.9137 25.7889 14.9137 25.8138 14.904 25.8329C14.8954 25.8496 14.8818 25.8633 14.865 25.8718C14.846 25.8815 14.821 25.8815 14.7712 25.8815H13.2944C13.2445 25.8815 13.2196 25.8815 13.2005 25.8912C13.1838 25.8998 13.1701 25.9134 13.1616 25.9301C13.1519 25.9492 13.1519 25.9741 13.1519 26.024V26.8385C13.1519 26.8884 13.1519 26.9133 13.1616 26.9323C13.1701 26.9491 13.1838 26.9627 13.2005 26.9713C13.2196 26.981 13.2445 26.981 13.2944 26.981H14.5062C14.5561 26.981 14.5811 26.981 14.6001 26.9907C14.6169 26.9992 14.6305 27.0128 14.639 27.0296C14.6487 27.0487 14.6487 27.0736 14.6487 27.1235V27.62C14.6487 27.6699 14.6487 27.6948 14.639 27.7139C14.6305 27.7306 14.6169 27.7443 14.6001 27.7528C14.5811 27.7625 14.5561 27.7625 14.5062 27.7625H13.2944C13.2445 27.7625 13.2196 27.7625 13.2005 27.7722C13.1838 27.7808 13.1701 27.7944 13.1616 27.8111C13.1519 27.8302 13.1519 27.8551 13.1519 27.905V28.8122C13.1519 28.8621 13.1519 28.887 13.1616 28.9061C13.1701 28.9228 13.1838 28.9365 13.2005 28.945C13.2196 28.9547 13.2445 28.9547 13.2944 28.9547H14.7712C14.821 28.9547 14.846 28.9547 14.865 28.9644C14.8818 28.9729 14.8954 28.9866 14.904 29.0033C14.9137 29.0224 14.9137 29.0473 14.9137 29.0972V29.5937C14.9137 29.6436 14.9137 29.6686 14.904 29.6876C14.8954 29.7044 14.8818 29.718 14.865 29.7265C14.846 29.7362 14.821 29.7362 14.7712 29.7362H12.3539Z" fill="#2845C1"/>
<path d="M15.703 25.9544C15.6531 25.9544 15.6281 25.9544 15.6091 25.9447C15.5923 25.9361 15.5787 25.9225 15.5702 25.9057C15.5605 25.8867 15.5605 25.8618 15.5605 25.8119V25.2425C15.5605 25.1926 15.5605 25.1677 15.5702 25.1486C15.5787 25.1318 15.5923 25.1182 15.6091 25.1097C15.6281 25.1 15.6531 25.1 15.703 25.1H19.2197C19.2696 25.1 19.2945 25.1 19.3136 25.1097C19.3303 25.1182 19.344 25.1318 19.3525 25.1486C19.3622 25.1677 19.3622 25.1926 19.3622 25.2425V25.8119C19.3622 25.8618 19.3622 25.8867 19.3525 25.9057C19.344 25.9225 19.3303 25.9361 19.3136 25.9447C19.2945 25.9544 19.2696 25.9544 19.2197 25.9544H18.0741C18.0242 25.9544 17.9993 25.9544 17.9802 25.9641C17.9635 25.9726 17.9498 25.9862 17.9413 26.003C17.9316 26.0221 17.9316 26.047 17.9316 26.0969V29.5937C17.9316 29.6436 17.9316 29.6686 17.9219 29.6876C17.9133 29.7044 17.8997 29.718 17.883 29.7265C17.8639 29.7362 17.839 29.7362 17.7891 29.7362H17.1336C17.0837 29.7362 17.0588 29.7362 17.0397 29.7265C17.023 29.718 17.0093 29.7044 17.0008 29.6876C16.9911 29.6686 16.9911 29.6436 16.9911 29.5937V26.0969C16.9911 26.047 16.9911 26.0221 16.9814 26.003C16.9728 25.9862 16.9592 25.9726 16.9425 25.9641C16.9234 25.9544 16.8985 25.9544 16.8486 25.9544H15.703Z" fill="#2845C1"/>
<path d="M19.2992 29.7362C19.2299 29.7362 19.1953 29.7362 19.173 29.7217C19.1536 29.709 19.1399 29.6891 19.1349 29.6664C19.1291 29.6405 19.1414 29.6081 19.1659 29.5433L20.8132 25.192C20.8258 25.1588 20.832 25.1422 20.8429 25.13C20.8524 25.1192 20.8645 25.1109 20.878 25.1058C20.8932 25.1 20.911 25.1 20.9465 25.1H21.9815C22.017 25.1 22.0348 25.1 22.05 25.1058C22.0635 25.1109 22.0756 25.1192 22.0851 25.13C22.096 25.1422 22.1022 25.1588 22.1148 25.192L23.7621 29.5433C23.7866 29.6081 23.7989 29.6405 23.7931 29.6664C23.7881 29.6891 23.7744 29.709 23.755 29.7217C23.7327 29.7362 23.6981 29.7362 23.6288 29.7362H22.9344C22.8986 29.7362 22.8807 29.7362 22.8653 29.7304C22.8517 29.7252 22.8396 29.7167 22.8301 29.7058C22.8192 29.6934 22.813 29.6766 22.8007 29.643L22.4256 28.6241C22.4132 28.5905 22.407 28.5737 22.3962 28.5613C22.3866 28.5503 22.3745 28.5419 22.361 28.5367C22.3456 28.5308 22.3277 28.5308 22.2919 28.5308H20.6361C20.6003 28.5308 20.5824 28.5308 20.567 28.5367C20.5535 28.5419 20.5414 28.5503 20.5318 28.5613C20.521 28.5737 20.5148 28.5905 20.5024 28.6241L20.1273 29.643C20.1149 29.6766 20.1088 29.6934 20.0979 29.7058C20.0884 29.7167 20.0763 29.7252 20.0627 29.7304C20.0473 29.7362 20.0294 29.7362 19.9936 29.7362H19.2992ZM20.898 27.538C20.8745 27.6024 20.8628 27.6346 20.8687 27.6603C20.8739 27.6828 20.8876 27.7024 20.907 27.715C20.9291 27.7294 20.9634 27.7294 21.0319 27.7294H21.8961C21.9646 27.7294 21.9989 27.7294 22.021 27.715C22.0404 27.7024 22.0541 27.6828 22.0593 27.6603C22.0652 27.6346 22.0535 27.6024 22.03 27.538L21.5979 26.3542C21.5566 26.2411 21.5359 26.1846 21.5058 26.1686C21.4797 26.1547 21.4483 26.1547 21.4222 26.1686C21.392 26.1846 21.3714 26.2411 21.3301 26.3542L20.898 27.538Z" fill="#2845C1"/>
<defs>
<linearGradient id="paint0_linear_1361_710" x1="15.9268" y1="23" x2="15.9268" y2="32" gradientUnits="userSpaceOnUse">
<stop stop-color="#2845C1"/>
<stop offset="1" stop-color="#ECF1F7"/>
</linearGradient>
</defs>
</svg>
