<svg width="48" height="48" viewBox="0 0 48 48" fill="none" xmlns="http://www.w3.org/2000/svg">
<path d="M5.66655 40.3994C5.29829 40.7366 4.71764 40.6118 4.61406 40.1234C4.53802 39.7648 4.5 39.3464 4.5 38.8683V22.3729C4.5 21.8549 4.53802 21.4116 4.61406 21.0431C4.71583 20.6115 5.19045 20.5081 5.5353 20.7868L16.1741 29.3851C16.5992 29.7287 16.619 30.37 16.2159 30.7392L5.66655 40.3994ZM9.1277 43.5002C8.53023 43.5002 7.99794 43.4404 7.53082 43.3209C7.50054 43.3129 7.4706 43.3048 7.441 43.2965C6.87976 43.1395 6.80758 42.46 7.23712 42.0661L18.2205 31.9949C18.5477 31.6949 19.0456 31.6806 19.3896 31.9614L21.1695 33.4146C21.6475 33.7932 22.1363 34.082 22.636 34.2812C23.1357 34.4705 23.6409 34.5651 24.1514 34.5651C24.662 34.5651 25.1672 34.4705 25.6669 34.2812C26.1774 34.082 26.6717 33.7932 27.1497 33.4146L28.9296 31.9614C29.2736 31.6806 29.7715 31.6949 30.0987 31.9949L41.0821 42.0661C41.5116 42.46 41.4386 43.1379 40.8768 43.293C40.8424 43.3025 40.8074 43.3118 40.7721 43.3209C40.3158 43.4404 39.789 43.5002 39.1915 43.5002H9.1277ZM43.6888 40.1234C43.5873 40.6024 43.0178 40.7337 42.6567 40.4031L32.1033 30.7392C31.7002 30.37 31.72 29.7287 32.1451 29.3851L42.7888 20.7828C43.1249 20.5111 43.5896 20.6224 43.6888 21.0431C43.7757 21.4116 43.8192 21.8549 43.8192 22.3729V38.8683C43.8192 39.3464 43.7757 39.7648 43.6888 40.1234Z" fill="#2845C1"/>
<path d="M11.6489 22.3774L6.74444 18.3745C5.60537 17.4448 5.60537 15.7042 6.74444 14.7745L22.1791 2.17726C23.2854 1.27425 24.8744 1.27425 25.9808 2.17726L41.4154 14.7745C42.5545 15.7042 42.5545 17.4448 41.4154 18.3745L36.6702 22.2474V17.0169C36.6702 15.3566 35.3243 14.0107 33.6639 14.0107H14.6552C12.9949 14.0107 11.6489 15.3566 11.6489 17.0169V22.3774Z" fill="#FBC63A"/>
</svg>
