<svg width="142" height="40" viewBox="0 0 142 40" fill="none" xmlns="http://www.w3.org/2000/svg">
<path d="M7.7777 30.9329C7.5322 31.1577 7.1451 31.0746 7.07604 30.7489C7.02535 30.5099 7 30.2309 7 29.9122V18.9152C7 18.5699 7.02535 18.2744 7.07604 18.0287C7.14388 17.741 7.4603 17.672 7.6902 17.8578L14.7827 23.5901C15.0662 23.8191 15.0793 24.2467 14.8106 24.4928L7.7777 30.9329ZM10.0851 33.0001C9.68682 33.0001 9.33196 32.9603 9.02055 32.8806C9.00036 32.8753 8.9804 32.8699 8.96066 32.8644C8.58651 32.7597 8.53839 32.3067 8.82475 32.0441L16.147 25.33C16.3651 25.1299 16.6971 25.1204 16.9264 25.3076L18.113 26.2764C18.4317 26.5288 18.7576 26.7214 19.0907 26.8542C19.4238 26.9803 19.7606 27.0434 20.101 27.0434C20.4413 27.0434 20.7781 26.9803 21.1112 26.8542C21.4516 26.7214 21.7811 26.5288 22.0998 26.2764L23.2864 25.3076C23.5157 25.1204 23.8477 25.1299 24.0658 25.33L31.388 32.0441C31.6744 32.3067 31.6257 32.7586 31.2512 32.862C31.2282 32.8684 31.205 32.8745 31.1814 32.8806C30.8772 32.9603 30.526 33.0001 30.1277 33.0001H10.0851ZM33.1259 30.7489C33.0582 31.0682 32.6785 31.1558 32.4378 30.9354L25.4022 24.4928C25.1334 24.2467 25.1466 23.8191 25.43 23.5901L32.5259 17.8552C32.75 17.6741 33.0598 17.7483 33.1259 18.0287C33.1838 18.2744 33.2128 18.5699 33.2128 18.9152V29.9122C33.2128 30.2309 33.1838 30.5099 33.1259 30.7489Z" fill="#BEC5F0"/>
<path d="M11.766 18.9183L8.4963 16.2497C7.73691 15.6299 7.73691 14.4695 8.4963 13.8497L18.786 5.4515C19.5236 4.8495 20.583 4.8495 21.3206 5.45151L31.6103 13.8497C32.3697 14.4695 32.3697 15.6299 31.6103 16.2497L28.4468 18.8316V15.3446C28.4468 14.2377 27.5495 13.3404 26.4426 13.3404H13.7701C12.6633 13.3404 11.766 14.2377 11.766 15.3446V18.9183Z" fill="#BEC5F0"/>
<rect x="7.92676" y="27" width="25" height="9" rx="4.5" fill="#333B50"/>
<rect x="7.92676" y="27" width="25" height="9" rx="4.5" fill="url(#paint0_linear_6809_2429)" fill-opacity="0.1"/>
<path d="M12.4501 33.7364C12.3982 33.7364 12.3722 33.7364 12.3524 33.7267C12.3349 33.7181 12.3207 33.7045 12.3118 33.6877C12.3017 33.6687 12.3017 33.6437 12.3017 33.5939V29.2426C12.3017 29.1927 12.3017 29.1678 12.3118 29.1487C12.3207 29.132 12.3349 29.1183 12.3524 29.1098C12.3722 29.1001 12.3982 29.1001 12.4501 29.1001H13.7229C14.7302 29.1001 15.3442 29.577 15.3442 30.3585C15.3442 30.6481 15.2387 30.9066 15.0369 31.1069C14.9655 31.1778 14.9298 31.2132 14.9238 31.2365C14.9173 31.2616 14.9187 31.2741 14.9306 31.2973C14.9416 31.3188 14.9829 31.3452 15.0655 31.398C15.4247 31.6276 15.6202 31.9701 15.6202 32.372C15.6202 33.2198 14.9372 33.7364 13.8264 33.7364H12.4501ZM13.7436 29.8816H13.4298C13.3779 29.8816 13.3519 29.8816 13.332 29.8913C13.3146 29.8999 13.3004 29.9135 13.2915 29.9303C13.2814 29.9493 13.2814 29.9743 13.2814 30.0241V30.7856C13.2814 30.8355 13.2814 30.8604 13.2915 30.8795C13.3004 30.8962 13.3146 30.9099 13.332 30.9184C13.3519 30.9281 13.3779 30.9281 13.4298 30.9281H13.7436C14.1162 30.9281 14.337 30.736 14.337 30.3983C14.337 30.0737 14.1162 29.8816 13.7436 29.8816ZM13.8816 31.7097H13.4298C13.3779 31.7097 13.3519 31.7097 13.332 31.7194C13.3146 31.7279 13.3004 31.7415 13.2915 31.7583C13.2814 31.7773 13.2814 31.8023 13.2814 31.8522V32.8123C13.2814 32.8622 13.2814 32.8871 13.2915 32.9062C13.3004 32.923 13.3146 32.9366 13.332 32.9451C13.3519 32.9548 13.3779 32.9548 13.4298 32.9548H13.8816C14.337 32.9548 14.6129 32.723 14.6129 32.3322C14.6129 31.9348 14.337 31.7097 13.8816 31.7097Z" fill="#BEC5F0"/>
<path d="M16.705 33.7364C16.653 33.7364 16.6271 33.7364 16.6072 33.7267C16.5898 33.7181 16.5756 33.7045 16.5667 33.6877C16.5566 33.6687 16.5566 33.6437 16.5566 33.5939V29.2426C16.5566 29.1927 16.5566 29.1678 16.5667 29.1487C16.5756 29.132 16.5898 29.1183 16.6072 29.1098C16.6271 29.1001 16.653 29.1001 16.705 29.1001H19.223C19.275 29.1001 19.3009 29.1001 19.3208 29.1098C19.3382 29.1183 19.3524 29.132 19.3613 29.1487C19.3714 29.1678 19.3714 29.1927 19.3714 29.2426V29.7391C19.3714 29.789 19.3714 29.814 19.3613 29.833C19.3524 29.8498 19.3382 29.8634 19.3208 29.8719C19.3009 29.8816 19.275 29.8816 19.223 29.8816H17.6847C17.6327 29.8816 17.6068 29.8816 17.5869 29.8913C17.5695 29.8999 17.5553 29.9135 17.5464 29.9303C17.5363 29.9493 17.5363 29.9743 17.5363 30.0241V30.8386C17.5363 30.8885 17.5363 30.9134 17.5464 30.9325C17.5553 30.9492 17.5695 30.9629 17.5869 30.9714C17.6068 30.9811 17.6327 30.9811 17.6847 30.9811H18.947C18.999 30.9811 19.025 30.9811 19.0448 30.9908C19.0623 30.9993 19.0765 31.013 19.0854 31.0297C19.0955 31.0488 19.0955 31.0737 19.0955 31.1236V31.6201C19.0955 31.67 19.0955 31.695 19.0854 31.714C19.0765 31.7308 19.0623 31.7444 19.0448 31.7529C19.025 31.7626 18.999 31.7626 18.947 31.7626H17.6847C17.6327 31.7626 17.6068 31.7626 17.5869 31.7723C17.5695 31.7809 17.5553 31.7945 17.5464 31.8113C17.5363 31.8303 17.5363 31.8553 17.5363 31.9051V32.8123C17.5363 32.8622 17.5363 32.8871 17.5464 32.9062C17.5553 32.923 17.5695 32.9366 17.5869 32.9451C17.6068 32.9548 17.6327 32.9548 17.6847 32.9548H19.223C19.275 32.9548 19.3009 32.9548 19.3208 32.9645C19.3382 32.9731 19.3524 32.9867 19.3613 33.0035C19.3714 33.0225 19.3714 33.0474 19.3714 33.0973V33.5939C19.3714 33.6437 19.3714 33.6687 19.3613 33.6877C19.3524 33.7045 19.3382 33.7181 19.3208 33.7267C19.3009 33.7364 19.275 33.7364 19.223 33.7364H16.705Z" fill="#BEC5F0"/>
<path d="M20.1936 29.9545C20.1417 29.9545 20.1157 29.9545 20.0958 29.9448C20.0784 29.9362 20.0642 29.9226 20.0553 29.9059C20.0452 29.8868 20.0452 29.8619 20.0452 29.812V29.2426C20.0452 29.1927 20.0452 29.1678 20.0553 29.1487C20.0642 29.132 20.0784 29.1183 20.0958 29.1098C20.1157 29.1001 20.1417 29.1001 20.1936 29.1001H23.8569C23.9089 29.1001 23.9348 29.1001 23.9547 29.1098C23.9721 29.1183 23.9863 29.132 23.9952 29.1487C24.0053 29.1678 24.0053 29.1927 24.0053 29.2426V29.812C24.0053 29.8619 24.0053 29.8868 23.9952 29.9059C23.9863 29.9226 23.9721 29.9362 23.9547 29.9448C23.9348 29.9545 23.9089 29.9545 23.8569 29.9545H22.6635C22.6116 29.9545 22.5856 29.9545 22.5658 29.9642C22.5483 29.9727 22.5341 29.9864 22.5252 30.0031C22.5151 30.0222 22.5151 30.0471 22.5151 30.097V33.5939C22.5151 33.6437 22.5151 33.6687 22.505 33.6877C22.4961 33.7045 22.4819 33.7181 22.4645 33.7267C22.4446 33.7364 22.4186 33.7364 22.3667 33.7364H21.6839C21.6319 33.7364 21.6059 33.7364 21.5861 33.7267C21.5686 33.7181 21.5544 33.7045 21.5455 33.6877C21.5354 33.6687 21.5354 33.6437 21.5354 33.5939V30.097C21.5354 30.0471 21.5354 30.0222 21.5253 30.0031C21.5164 29.9864 21.5022 29.9727 21.4848 29.9642C21.4649 29.9545 21.4389 29.9545 21.387 29.9545H20.1936Z" fill="#BEC5F0"/>
<path d="M23.9397 33.7364C23.8675 33.7364 23.8314 33.7364 23.8083 33.7218C23.788 33.7091 23.7738 33.6892 23.7685 33.6666C23.7625 33.6406 23.7753 33.6082 23.8009 33.5434L25.5168 29.1921C25.5299 29.159 25.5364 29.1424 25.5477 29.1301C25.5576 29.1193 25.5702 29.111 25.5842 29.1059C25.6001 29.1001 25.6186 29.1001 25.6556 29.1001H26.7338C26.7708 29.1001 26.7893 29.1001 26.8052 29.1059C26.8192 29.111 26.8318 29.1193 26.8417 29.1301C26.853 29.1424 26.8595 29.159 26.8726 29.1921L28.5885 33.5434C28.6141 33.6082 28.6269 33.6406 28.6209 33.6666C28.6156 33.6892 28.6014 33.7091 28.5811 33.7218C28.558 33.7364 28.5219 33.7364 28.4497 33.7364H27.7264C27.6891 33.7364 27.6704 33.7364 27.6544 33.7305C27.6403 33.7253 27.6277 33.7169 27.6177 33.7059C27.6064 33.6935 27.6 33.6767 27.5871 33.6431L27.1964 32.6242C27.1835 32.5906 27.177 32.5738 27.1657 32.5614C27.1558 32.5504 27.1432 32.542 27.129 32.5368C27.113 32.5309 27.0944 32.5309 27.0571 32.5309H25.3323C25.295 32.5309 25.2764 32.5309 25.2604 32.5368C25.2462 32.542 25.2336 32.5504 25.2237 32.5614C25.2124 32.5738 25.2059 32.5906 25.193 32.6242L24.8023 33.6431C24.7894 33.6767 24.783 33.6935 24.7717 33.7059C24.7618 33.7169 24.7492 33.7253 24.735 33.7305C24.719 33.7364 24.7003 33.7364 24.663 33.7364H23.9397ZM25.6051 31.5382C25.5807 31.6025 25.5684 31.6347 25.5746 31.6604C25.58 31.6829 25.5943 31.7026 25.6145 31.7151C25.6375 31.7295 25.6732 31.7295 25.7446 31.7295H26.6448C26.7162 31.7295 26.7519 31.7295 26.775 31.7151C26.7951 31.7026 26.8094 31.6829 26.8148 31.6604C26.821 31.6347 26.8087 31.6025 26.7843 31.5382L26.3341 30.3543C26.2912 30.2413 26.2697 30.1847 26.2382 30.1687C26.211 30.1548 26.1784 30.1548 26.1512 30.1687C26.1198 30.1847 26.0983 30.2413 26.0553 30.3543L25.6051 31.5382Z" fill="#BEC5F0"/>
<path fill-rule="evenodd" clip-rule="evenodd" d="M108.123 16.0383C108.976 16.0384 109.72 16.1847 110.356 16.4747C110.383 16.4869 110.412 16.4934 110.441 16.4934H114.416C114.527 16.4934 114.616 16.583 114.616 16.6934V18.435C114.616 18.5455 114.527 18.635 114.416 18.635H112.559C112.489 18.635 112.44 18.7061 112.463 18.7727C112.607 19.1816 112.68 19.6139 112.68 20.0706C112.68 20.8148 112.497 21.4986 112.133 22.1213C111.783 22.7441 111.267 23.2382 110.584 23.6028C109.9 23.9673 109.08 24.1496 108.123 24.1497C107.69 24.1497 107.284 24.1111 106.905 24.034C106.843 24.0214 106.778 24.037 106.731 24.0799C106.674 24.132 106.621 24.185 106.573 24.2405C106.376 24.4531 106.277 24.6811 106.277 24.9241C106.277 25.1519 106.346 25.3342 106.482 25.4709C106.619 25.5924 106.832 25.6536 107.12 25.6536H110.174C111.161 25.6536 111.981 25.8132 112.634 26.1321C113.302 26.4358 113.796 26.8608 114.115 27.4075C114.449 27.9543 114.616 28.5779 114.616 29.2766C114.616 29.8993 114.472 30.4765 114.184 31.0081C113.91 31.5397 113.507 32.0028 112.976 32.3977C112.459 32.8078 111.837 33.1196 111.107 33.3323C110.378 33.5601 109.573 33.6741 108.692 33.6741C107.508 33.6741 106.482 33.5301 105.616 33.2415C104.766 32.968 104.105 32.5578 103.634 32.011C103.178 31.4641 102.95 30.795 102.95 30.0051C102.95 29.2915 103.163 28.6612 103.588 28.1145C103.806 27.8421 104.07 27.5814 104.38 27.3328C104.477 27.2542 104.485 27.1063 104.401 27.0127C104.29 26.8891 104.194 26.7552 104.112 26.6106C103.93 26.2612 103.839 25.8966 103.839 25.5168C103.839 24.9245 104.021 24.4003 104.386 23.9446C104.534 23.7605 104.714 23.5858 104.925 23.4203C105.033 23.336 105.037 23.1709 104.933 23.0813C104.615 22.8055 104.348 22.4861 104.135 22.1213C103.77 21.4986 103.588 20.8147 103.588 20.0706C103.588 19.3416 103.77 18.6732 104.135 18.0657C104.499 17.4429 105.016 16.9498 105.685 16.5852C106.368 16.2206 107.181 16.0383 108.123 16.0383ZM106.394 27.8176C106.347 27.8176 106.301 27.834 106.266 27.8646C106.038 28.0615 105.836 28.2732 105.662 28.5012C105.434 28.8354 105.32 29.2311 105.32 29.6868C105.32 30.0816 105.449 30.4236 105.707 30.7122C105.98 31.016 106.361 31.2438 106.847 31.3958C107.348 31.5628 107.956 31.6458 108.67 31.6458C109.414 31.6457 110.044 31.5545 110.561 31.3723C111.077 31.2052 111.464 30.9546 111.723 30.6204C111.996 30.3014 112.133 29.9294 112.133 29.5042C112.133 29.1852 112.064 28.8962 111.928 28.6379C111.791 28.3951 111.563 28.198 111.244 28.0461C110.925 27.8943 110.485 27.8176 109.923 27.8176H106.394ZM108.146 17.929C107.675 17.929 107.264 18.0274 106.915 18.2249C106.581 18.4071 106.323 18.658 106.141 18.9768C105.974 19.2957 105.89 19.6606 105.89 20.0706C105.89 20.4807 105.974 20.8536 106.141 21.1877C106.323 21.5218 106.581 21.7799 106.915 21.9622C107.264 22.1444 107.675 22.2356 108.146 22.2356C108.616 22.2356 109.019 22.1444 109.354 21.9622C109.688 21.7647 109.938 21.5066 110.105 21.1877C110.288 20.8536 110.379 20.4807 110.379 20.0706C110.379 19.6454 110.288 19.2732 110.105 18.9543C109.938 18.6354 109.688 18.3847 109.354 18.2024C109.019 18.0201 108.616 17.929 108.146 17.929Z" fill="#BEC5F0"/>
<path fill-rule="evenodd" clip-rule="evenodd" d="M65.5537 16.0383C66.3435 16.0383 67.0574 16.1669 67.6953 16.425C68.3333 16.6833 68.8802 17.0407 69.3359 17.4963C69.8068 17.952 70.1642 18.4909 70.4072 19.1135C70.6503 19.7363 70.7715 20.4127 70.7715 21.1418C70.7715 21.4153 70.7569 21.6815 70.7266 21.9397C70.7046 22.1267 70.6784 22.2898 70.6483 22.429C70.6292 22.5171 70.5497 22.5774 70.4595 22.5774H62.462C62.3459 22.5774 62.2538 22.6761 62.2661 22.7915C62.33 23.3955 62.4761 23.9166 62.7061 24.3547C63.025 24.9622 63.4727 25.4182 64.0498 25.7219C64.627 26.0257 65.2806 26.178 66.0098 26.178C66.6932 26.1779 67.3087 26.0412 67.8555 25.7678C68.3483 25.5281 68.7533 25.2179 69.0709 24.8379C69.1437 24.7508 69.2732 24.733 69.362 24.8038L70.8487 25.989C70.933 26.0562 70.9492 26.1786 70.8817 26.2628C70.3671 26.9053 69.7147 27.4232 68.9258 27.8176C68.0751 28.2277 67.1107 28.4329 66.0322 28.4329C64.6955 28.4328 63.556 28.1521 62.6143 27.5901C61.6726 27.0129 60.9514 26.2534 60.4502 25.3118C59.9489 24.37 59.6982 23.3445 59.6982 22.2356C59.6982 21.3699 59.8268 20.5648 60.085 19.8206C60.3584 19.0762 60.7458 18.4226 61.2471 17.8606C61.7483 17.2834 62.3638 16.8358 63.0928 16.5168C63.8219 16.1979 64.6423 16.0383 65.5537 16.0383ZM65.4854 18.1116C64.8173 18.1116 64.2326 18.2631 63.7314 18.5667C63.2453 18.8705 62.8725 19.3189 62.6143 19.9114C62.5307 20.0981 62.4615 20.2994 62.4053 20.5149C62.3734 20.6376 62.4685 20.7542 62.5953 20.7542H68.1012C68.2141 20.7542 68.3054 20.6605 68.2936 20.5482C68.2557 20.188 68.148 19.8463 67.9688 19.5237C67.7561 19.0986 67.4451 18.7564 67.0352 18.4983C66.625 18.2401 66.1082 18.1116 65.4854 18.1116Z" fill="#BEC5F0"/>
<path d="M76.3594 16.0383C77.1948 16.0384 77.9697 16.2207 78.6836 16.5852C79.348 16.9174 79.8802 17.3316 80.2798 17.8278C80.3454 17.9092 80.3311 18.0273 80.2516 18.0952L78.8476 19.2929C78.7591 19.3684 78.6254 19.3524 78.552 19.2621C78.2927 18.9429 77.9946 18.6734 77.6582 18.4534C77.2633 18.1952 76.8302 18.0657 76.3594 18.0657C76.0252 18.0657 75.7362 18.1268 75.4932 18.2483C75.2654 18.3698 75.0912 18.5294 74.9697 18.7268C74.8635 18.9242 74.8096 19.1441 74.8096 19.387C74.8096 19.7515 74.939 20.056 75.1973 20.2991C75.4706 20.5268 75.82 20.7238 76.2451 20.8909C76.6705 21.058 77.1189 21.2403 77.5898 21.4377C78.0759 21.62 78.5317 21.8479 78.957 22.1213C79.3824 22.3796 79.7242 22.7297 79.9824 23.1702C80.2557 23.5954 80.3925 24.1345 80.3926 24.7874C80.3926 25.5621 80.202 26.2229 79.8223 26.7698C79.4577 27.3014 78.9719 27.7116 78.3643 28.0002C77.7567 28.2888 77.0884 28.4328 76.3594 28.4329C75.372 28.4329 74.5133 28.2506 73.7842 27.886C73.1125 27.5361 72.5178 27.0767 72.0008 26.5077C71.9272 26.4267 71.9362 26.3015 72.0183 26.2292L73.4217 24.9942C73.5074 24.9188 73.6385 24.9305 73.713 25.017C74.0433 25.4001 74.4088 25.7191 74.8096 25.9729C75.2653 26.2615 75.7749 26.4055 76.3369 26.4055C76.8683 26.4054 77.2706 26.2686 77.5439 25.9954C77.8325 25.7068 77.9765 25.3575 77.9766 24.9475C77.9766 24.5677 77.8398 24.2633 77.5664 24.0354C77.3083 23.8078 76.9669 23.6106 76.542 23.4436C76.1168 23.2766 75.6608 23.1014 75.1748 22.9192C74.704 22.7217 74.2554 22.4865 73.8301 22.2131C73.4047 21.9397 73.0557 21.5896 72.7822 21.1643C72.5241 20.7239 72.3946 20.1622 72.3945 19.4788C72.3945 18.8408 72.5613 18.2628 72.8955 17.7463C73.2297 17.2148 73.6938 16.7972 74.2861 16.4934C74.8937 16.1897 75.5848 16.0383 76.3594 16.0383Z" fill="#BEC5F0"/>
<path d="M85.8223 16.0383C86.6577 16.0383 87.4325 16.2206 88.1465 16.5852C88.811 16.9175 89.3431 17.3315 89.7427 17.8278C89.8083 17.9092 89.794 18.0273 89.7145 18.0952L88.3105 19.2929C88.222 19.3684 88.0883 19.3524 88.0149 19.2621C87.7555 18.9429 87.4576 18.6734 87.1211 18.4534C86.7261 18.1951 86.2932 18.0657 85.8223 18.0657C85.4883 18.0657 85.2 18.1269 84.957 18.2483C84.7292 18.3698 84.5541 18.5293 84.4326 18.7268C84.3264 18.9241 84.2735 19.1441 84.2734 19.387C84.2734 19.7515 84.4019 20.056 84.6602 20.2991C84.9335 20.5268 85.2829 20.7238 85.708 20.8909C86.1333 21.0579 86.5819 21.2403 87.0527 21.4377C87.5388 21.62 87.9946 21.848 88.4199 22.1213C88.8453 22.3796 89.1871 22.7296 89.4453 23.1702C89.7186 23.5954 89.8554 24.1344 89.8555 24.7874C89.8555 25.562 89.6658 26.223 89.2861 26.7698C88.9216 27.3014 88.4348 27.7116 87.8271 28.0002C87.2196 28.2888 86.5513 28.4329 85.8223 28.4329C84.835 28.4328 83.9771 28.2505 83.248 27.886C82.5762 27.5361 81.9817 27.0767 81.4646 26.5077C81.391 26.4267 81.4 26.3015 81.4822 26.2292L82.8856 24.9942C82.9713 24.9188 83.1023 24.9305 83.1769 25.017C83.5071 25.4001 83.8727 25.7191 84.2734 25.9729C84.729 26.2613 85.238 26.4055 85.7998 26.4055C86.3312 26.4055 86.7334 26.2686 87.0068 25.9954C87.2954 25.7068 87.4403 25.3575 87.4404 24.9475C87.4404 24.5677 87.3037 24.2633 87.0303 24.0354C86.7721 23.8076 86.4301 23.6107 86.0049 23.4436C85.5796 23.2765 85.1237 23.1015 84.6377 22.9192C84.1668 22.7217 83.7183 22.4866 83.293 22.2131C82.8676 21.9397 82.5185 21.5896 82.2451 21.1643C81.987 20.7239 81.8575 20.1621 81.8574 19.4788C81.8574 18.8408 82.0252 18.2628 82.3594 17.7463C82.6935 17.2149 83.1568 16.7971 83.749 16.4934C84.3566 16.1897 85.0477 16.0384 85.8223 16.0383Z" fill="#BEC5F0"/>
<path fill-rule="evenodd" clip-rule="evenodd" d="M120.636 16.0383C121.426 16.0383 122.139 16.1669 122.777 16.425C123.415 16.6833 123.962 17.0406 124.418 17.4963C124.889 17.952 125.246 18.4909 125.489 19.1135C125.732 19.7363 125.854 20.4127 125.854 21.1418C125.854 21.4153 125.838 21.6815 125.808 21.9397C125.786 22.1266 125.76 22.2897 125.73 22.4289C125.711 22.5171 125.632 22.5774 125.542 22.5774H117.544C117.428 22.5774 117.336 22.6761 117.348 22.7915C117.412 23.3955 117.557 23.9167 117.787 24.3547C118.106 24.9624 118.555 25.4181 119.132 25.7219C119.709 26.0257 120.363 26.178 121.092 26.178C121.775 26.1779 122.39 26.041 122.937 25.7678C123.429 25.5281 123.835 25.218 124.153 24.838C124.226 24.7508 124.355 24.7331 124.444 24.8039L125.93 25.989C126.014 26.0562 126.03 26.1785 125.963 26.2627C125.448 26.9052 124.797 27.4233 124.008 27.8176C123.157 28.2278 122.193 28.4328 121.114 28.4329C119.777 28.4329 118.638 28.1521 117.696 27.5901C116.755 27.0129 116.033 26.2536 115.531 25.3118C115.03 24.37 114.779 23.3445 114.779 22.2356C114.779 21.3698 114.909 20.5648 115.167 19.8206C115.44 19.0762 115.828 18.4226 116.329 17.8606C116.83 17.2834 117.446 16.8358 118.175 16.5168C118.904 16.1978 119.724 16.0383 120.636 16.0383ZM120.567 18.1116C119.899 18.1116 119.314 18.2628 118.812 18.5667C118.326 18.8704 117.955 19.319 117.696 19.9114C117.613 20.0981 117.543 20.2994 117.487 20.5149C117.455 20.6376 117.551 20.7542 117.677 20.7542H123.183C123.296 20.7542 123.387 20.6605 123.376 20.5482C123.338 20.188 123.23 19.8463 123.051 19.5237C122.838 19.0985 122.526 18.7565 122.116 18.4983C121.706 18.2403 121.19 18.1116 120.567 18.1116Z" fill="#BEC5F0"/>
<path d="M131.441 16.0383C132.277 16.0384 133.052 16.2207 133.766 16.5852C134.43 16.9174 134.961 17.3317 135.361 17.8278C135.426 17.9093 135.412 18.0273 135.333 18.0952L133.93 19.2928C133.841 19.3684 133.707 19.3524 133.634 19.262C133.375 18.9429 133.077 18.6733 132.74 18.4534C132.345 18.1952 131.912 18.0657 131.441 18.0657C131.107 18.0657 130.818 18.1268 130.575 18.2483C130.347 18.3698 130.172 18.5293 130.051 18.7268C129.945 18.9241 129.892 19.1442 129.892 19.387C129.892 19.7515 130.021 20.056 130.279 20.2991C130.553 20.5268 130.902 20.7238 131.327 20.8909C131.752 21.058 132.201 21.2403 132.672 21.4377C133.158 21.62 133.614 21.848 134.039 22.1213C134.464 22.3796 134.805 22.7297 135.063 23.1702C135.337 23.5954 135.474 24.1343 135.474 24.7874C135.474 25.562 135.284 26.2229 134.904 26.7698C134.54 27.3014 134.054 27.7116 133.446 28.0002C132.839 28.2888 132.17 28.4328 131.441 28.4329C130.454 28.4329 129.595 28.2506 128.866 27.886C128.194 27.5361 127.6 27.0767 127.083 26.5077C127.009 26.4267 127.018 26.3015 127.1 26.2292L128.504 24.9942C128.589 24.9188 128.721 24.9305 128.795 25.017C129.125 25.4001 129.491 25.7191 129.892 25.9729C130.347 26.2614 130.856 26.4055 131.418 26.4055C131.95 26.4055 132.353 26.2688 132.626 25.9954C132.914 25.7068 133.058 25.3575 133.059 24.9475C133.059 24.5677 132.922 24.2633 132.648 24.0354C132.39 23.8076 132.048 23.6106 131.623 23.4436C131.198 23.2765 130.742 23.1015 130.256 22.9192C129.785 22.7218 129.337 22.4864 128.912 22.2131C128.487 21.9397 128.137 21.5896 127.863 21.1643C127.605 20.7239 127.477 20.162 127.477 19.4788C127.477 18.8408 127.643 18.2628 127.978 17.7463C128.312 17.2149 128.775 16.7972 129.367 16.4934C129.975 16.1896 130.667 16.0383 131.441 16.0383Z" fill="#BEC5F0"/>
<path fill-rule="evenodd" clip-rule="evenodd" d="M96.4004 16.0383C97.4485 16.0383 98.3373 16.2279 99.0664 16.6077C99.7955 16.9874 100.342 17.5116 100.707 18.1799C101.087 18.8483 101.276 19.6004 101.276 20.4358V27.7778C101.276 27.8882 101.187 27.9778 101.076 27.9778H98.9705C98.8601 27.9778 98.7705 27.8882 98.7705 27.7778V27.0176C98.7705 26.9232 98.6482 26.8785 98.5825 26.9462C98.4805 27.0514 98.3685 27.1521 98.2461 27.2483C97.836 27.5825 97.3574 27.8404 96.8105 28.0227C96.2637 28.2202 95.7095 28.3196 95.1475 28.3196C94.0234 28.3196 93.1046 28.0151 92.3906 27.4075C91.6767 26.7999 91.3194 25.9877 91.3193 24.97C91.3193 24.1043 91.6458 23.3676 92.2988 22.76C92.952 22.1524 93.8946 21.7495 95.125 21.552L98.604 20.9611C98.7002 20.9448 98.7705 20.8615 98.7705 20.764V20.4358C98.7705 19.7522 98.5426 19.2199 98.0869 18.8401C97.6312 18.4452 97.0386 18.2483 96.3096 18.2483C95.7172 18.2483 95.1775 18.3768 94.6914 18.635C94.2799 18.8607 93.9266 19.1621 93.6311 19.5386C93.5609 19.6282 93.4315 19.6486 93.3411 19.5794L91.8151 18.4111C91.7293 18.3454 91.7109 18.2232 91.7771 18.1378C92.2618 17.5131 92.8768 17.0187 93.6211 16.6536C94.4413 16.2435 95.3676 16.0383 96.4004 16.0383ZM95.7627 23.2151C95.0791 23.3214 94.5851 23.5192 94.2812 23.8079C93.9776 24.0812 93.8262 24.4305 93.8262 24.8557C93.8262 25.281 93.9857 25.6311 94.3047 25.9045C94.6388 26.1777 95.0867 26.3147 95.6484 26.3147C96.3471 26.3147 96.9625 26.1551 97.4941 25.8362C97.9308 25.5742 98.3002 25.2398 98.6034 24.8341C98.7181 24.6807 98.7705 24.4912 98.7705 24.2997V22.9529C98.7705 22.8294 98.6597 22.7354 98.5378 22.7556L95.7627 23.2151Z" fill="#BEC5F0"/>
<path d="M49.6213 19.0057C49.6986 19.1365 49.8877 19.1367 49.9653 19.0061L54.0415 12.1479C54.0775 12.0872 54.1428 12.05 54.2134 12.05H57.4084C57.5189 12.05 57.6084 12.1396 57.6084 12.25V27.8002C57.6084 27.9107 57.5189 28.0002 57.4084 28.0002H55.0057C54.8952 28.0002 54.8057 27.9107 54.8057 27.8002V16.6213C54.8057 16.4186 54.5387 16.3445 54.4343 16.5183L50.8766 22.4346C50.8405 22.4947 50.7754 22.5315 50.7052 22.5315H48.9031C48.833 22.5315 48.7679 22.4947 48.7318 22.4346L45.1741 16.5183C45.0697 16.3445 44.8027 16.4186 44.8027 16.6213V27.8002C44.8027 27.9107 44.7132 28.0002 44.6027 28.0002H42.2C42.0895 28.0002 42 27.9107 42 27.8002V12.25C42 12.1396 42.0895 12.05 42.2 12.05H45.3947C45.4654 12.05 45.5309 12.0874 45.5669 12.1483L49.6213 19.0057Z" fill="#BEC5F0"/>
<defs>
<linearGradient id="paint0_linear_6809_2429" x1="20.4268" y1="27" x2="20.4268" y2="36" gradientUnits="userSpaceOnUse">
<stop stop-color="#94A3E5"/>
<stop offset="1" stop-color="#333B50"/>
</linearGradient>
</defs>
</svg>
