<svg xmlns="http://www.w3.org/2000/svg" width="122" height="60" fill="none"><g filter="url(#a)"><path fill="#fff" d="m2.164 28.372 20.946-5.343 20.946-5.343L51.53 44.24a.84.84 0 0 1-.603 1.046L10.71 55.544a.89.89 0 0 1-1.073-.619z"/><path stroke="#cacafb" stroke-linejoin="round" stroke-width=".865" d="m2.164 28.372 20.946-5.343 20.946-5.343M2.164 28.372l7.474 26.553a.89.89 0 0 0 1.072.619l40.217-10.259a.84.84 0 0 0 .603-1.046l-7.474-26.553M2.164 28.372l24.583 9.444a.865.865 0 0 0 .98-.25l16.33-19.88"/><path stroke="url(#b)" stroke-linejoin="round" stroke-opacity=".23" stroke-width=".865" d="m2.164 28.372 20.946-5.343 20.946-5.343M2.164 28.372l7.474 26.553a.89.89 0 0 0 1.072.619l40.217-10.259a.84.84 0 0 0 .603-1.046l-7.474-26.553M2.164 28.372l24.583 9.444a.865.865 0 0 0 .98-.25l16.33-19.88"/><path stroke="#cacafb" stroke-linejoin="round" stroke-width=".865" d="M51.765 45.072 31.04 33.48"/><path stroke="url(#c)" stroke-linejoin="round" stroke-opacity=".23" stroke-width=".865" d="M51.765 45.072 31.04 33.48"/><path stroke="#cacafb" stroke-linejoin="round" stroke-width=".865" d="m9.873 55.757 11.859-19.902"/><path stroke="url(#d)" stroke-linejoin="round" stroke-opacity=".23" stroke-width=".865" d="m9.873 55.757 11.859-19.902"/></g><g filter="url(#e)"><path fill="#fff" d="m77.322 17.686 20.946 5.343 20.946 5.343-7.474 26.553a.89.89 0 0 1-1.072.619L70.452 45.285a.84.84 0 0 1-.604-1.046z"/><path stroke="#cacafb" stroke-linejoin="round" stroke-width=".865" d="m77.322 17.686 20.946 5.343 20.946 5.343M77.322 17.686 69.848 44.24a.84.84 0 0 0 .604 1.046l40.216 10.259a.89.89 0 0 0 1.072-.619l7.474-26.553M77.322 17.686l16.329 19.88a.865.865 0 0 0 .98.25l24.583-9.444"/><path stroke="url(#f)" stroke-linejoin="round" stroke-opacity=".23" stroke-width=".865" d="m77.322 17.686 20.946 5.343 20.946 5.343M77.322 17.686 69.848 44.24a.84.84 0 0 0 .604 1.046l40.216 10.259a.89.89 0 0 0 1.072-.619l7.474-26.553M77.322 17.686l16.329 19.88a.865.865 0 0 0 .98.25l24.583-9.444"/><path stroke="#cacafb" stroke-linejoin="round" stroke-width=".865" d="m111.506 55.757-11.86-19.902"/><path stroke="url(#g)" stroke-linejoin="round" stroke-opacity=".23" stroke-width=".865" d="m111.506 55.757-11.86-19.902"/><path stroke="#cacafb" stroke-linejoin="round" stroke-width=".865" d="M69.614 45.072 90.338 33.48"/><path stroke="url(#h)" stroke-linejoin="round" stroke-opacity=".23" stroke-width=".865" d="M69.614 45.072 90.338 33.48"/></g><g filter="url(#i)"><path fill="#fff" d="M35.69 17.386 60.124.675a1 1 0 0 1 1.129 0l24.435 16.711v31.903a1 1 0 0 1-1 1h-48a1 1 0 0 1-1-1z"/><path stroke="#cacafb" stroke-linejoin="round" d="M35.69 17.386 60.124.675a1 1 0 0 1 1.129 0l24.435 16.711m-50 0v31.903a1 1 0 0 0 1 1h48a1 1 0 0 0 1-1V17.386m-50 0 24.415 17.616a1 1 0 0 0 1.17 0L85.69 17.386"/><path stroke="url(#j)" stroke-linejoin="round" stroke-opacity=".23" d="M35.69 17.386 60.124.675a1 1 0 0 1 1.129 0l24.435 16.711m-50 0v31.903a1 1 0 0 0 1 1h48a1 1 0 0 0 1-1V17.386m-50 0 24.415 17.616a1 1 0 0 0 1.17 0L85.69 17.386"/><path stroke="#cacafb" stroke-linejoin="round" d="M85.69 50.288 66.244 31.37"/><path stroke="url(#k)" stroke-linejoin="round" stroke-opacity=".23" d="M85.69 50.288 66.244 31.37"/><path stroke="#cacafb" stroke-linejoin="round" d="M35.69 50.288 55.133 31.37"/><path stroke="url(#l)" stroke-linejoin="round" stroke-opacity=".23" d="M35.69 50.288 55.133 31.37"/></g><defs><linearGradient id="b" x1="19.105" x2="29.787" y1="8.798" y2="50.678" gradientUnits="userSpaceOnUse"><stop stop-color="#fff" stop-opacity="0"/><stop offset="1" stop-color="#fff"/></linearGradient><linearGradient id="c" x1="39.187" x2="43.229" y1="31.403" y2="47.249" gradientUnits="userSpaceOnUse"><stop stop-color="#fff" stop-opacity="0"/><stop offset="1" stop-color="#fff"/></linearGradient><linearGradient id="d" x1="13.586" x2="17.628" y1="37.933" y2="53.779" gradientUnits="userSpaceOnUse"><stop stop-color="#fff" stop-opacity="0"/><stop offset="1" stop-color="#fff"/></linearGradient><linearGradient id="f" x1="102.274" x2="91.591" y1="8.798" y2="50.678" gradientUnits="userSpaceOnUse"><stop stop-color="#fff" stop-opacity="0"/><stop offset="1" stop-color="#fff"/></linearGradient><linearGradient id="g" x1="107.792" x2="103.75" y1="37.933" y2="53.779" gradientUnits="userSpaceOnUse"><stop stop-color="#fff" stop-opacity="0"/><stop offset="1" stop-color="#fff"/></linearGradient><linearGradient id="h" x1="82.192" x2="78.15" y1="31.403" y2="47.249" gradientUnits="userSpaceOnUse"><stop stop-color="#fff" stop-opacity="0"/><stop offset="1" stop-color="#fff"/></linearGradient><linearGradient id="j" x1="60.689" x2="60.689" y1=".289" y2="50.288" gradientUnits="userSpaceOnUse"><stop stop-color="#fff" stop-opacity="0"/><stop offset="1" stop-color="#fff"/></linearGradient><linearGradient id="k" x1="75.967" x2="75.967" y1="31.369" y2="50.288" gradientUnits="userSpaceOnUse"><stop stop-color="#fff" stop-opacity="0"/><stop offset="1" stop-color="#fff"/></linearGradient><linearGradient id="l" x1="45.411" x2="45.411" y1="31.369" y2="50.288" gradientUnits="userSpaceOnUse"><stop stop-color="#fff" stop-opacity="0"/><stop offset="1" stop-color="#fff"/></linearGradient><filter id="a" width="53.727" height="42.203" x="0" y="17.256" color-interpolation-filters="sRGB" filterUnits="userSpaceOnUse"><feFlood flood-opacity="0" result="BackgroundImageFix"/><feColorMatrix in="SourceAlpha" result="hardAlpha" values="0 0 0 0 0 0 0 0 0 0 0 0 0 0 0 0 0 0 127 0"/><feOffset dy="1.729"/><feGaussianBlur stdDeviation=".865"/><feComposite in2="hardAlpha" operator="out"/><feColorMatrix values="0 0 0 0 0 0 0 0 0 0 0 0 0 0 0 0 0 0 0.06 0"/><feBlend in2="BackgroundImageFix" result="effect1_dropShadow_14_24"/><feBlend in="SourceGraphic" in2="effect1_dropShadow_14_24" result="shape"/></filter><filter id="e" width="53.727" height="42.203" x="67.651" y="17.256" color-interpolation-filters="sRGB" filterUnits="userSpaceOnUse"><feFlood flood-opacity="0" result="BackgroundImageFix"/><feColorMatrix in="SourceAlpha" result="hardAlpha" values="0 0 0 0 0 0 0 0 0 0 0 0 0 0 0 0 0 0 127 0"/><feOffset dy="1.729"/><feGaussianBlur stdDeviation=".865"/><feComposite in2="hardAlpha" operator="out"/><feColorMatrix values="0 0 0 0 0 0 0 0 0 0 0 0 0 0 0 0 0 0 0.06 0"/><feBlend in2="BackgroundImageFix" result="effect1_dropShadow_14_24"/><feBlend in="SourceGraphic" in2="effect1_dropShadow_14_24" result="shape"/></filter><filter id="i" width="55" height="54.788" x="33.189" y="0" color-interpolation-filters="sRGB" filterUnits="userSpaceOnUse"><feFlood flood-opacity="0" result="BackgroundImageFix"/><feColorMatrix in="SourceAlpha" result="hardAlpha" values="0 0 0 0 0 0 0 0 0 0 0 0 0 0 0 0 0 0 127 0"/><feOffset dy="2"/><feGaussianBlur stdDeviation="1"/><feComposite in2="hardAlpha" operator="out"/><feColorMatrix values="0 0 0 0 0 0 0 0 0 0 0 0 0 0 0 0 0 0 0.06 0"/><feBlend in2="BackgroundImageFix" result="effect1_dropShadow_14_24"/><feBlend in="SourceGraphic" in2="effect1_dropShadow_14_24" result="shape"/></filter></defs></svg>
