<svg width="102" height="76" viewBox="0 0 102 76" fill="none" xmlns="http://www.w3.org/2000/svg">
<g filter="url(#filter0_d_2304_12949)">
<rect x="25.8984" y="42.2734" width="15.2031" height="20.4531" rx="2.50434" fill="white"/>
<rect x="25.8984" y="42.2734" width="15.2031" height="20.4531" rx="2.50434" stroke="#6D778E" stroke-width="0.546875"/>
<rect x="25.8984" y="42.2734" width="15.2031" height="20.4531" rx="2.50434" stroke="#F6F8FA" stroke-opacity="0.8" stroke-width="0.546875"/>
<path fill-rule="evenodd" clip-rule="evenodd" d="M27.667 44.625C27.667 44.3028 27.9282 44.0416 28.2503 44.0416H38.7503C39.0725 44.0416 39.3337 44.3028 39.3337 44.625C39.3337 44.9471 39.0725 45.2083 38.7503 45.2083H28.2503C27.9282 45.2083 27.667 44.9471 27.667 44.625Z" fill="#6D778E"/>
<path fill-rule="evenodd" clip-rule="evenodd" d="M27.667 44.625C27.667 44.3028 27.9282 44.0416 28.2503 44.0416H38.7503C39.0725 44.0416 39.3337 44.3028 39.3337 44.625C39.3337 44.9471 39.0725 45.2083 38.7503 45.2083H28.2503C27.9282 45.2083 27.667 44.9471 27.667 44.625Z" fill="#F6F8FA" fill-opacity="0.8"/>
<path fill-rule="evenodd" clip-rule="evenodd" d="M27.667 46.5937C27.667 46.2715 27.9282 46.0104 28.2503 46.0104H38.7503C39.0725 46.0104 39.3337 46.2715 39.3337 46.5937C39.3337 46.9159 39.0725 47.177 38.7503 47.177H28.2503C27.9282 47.177 27.667 46.9159 27.667 46.5937Z" fill="#6D778E"/>
<path fill-rule="evenodd" clip-rule="evenodd" d="M27.667 46.5937C27.667 46.2715 27.9282 46.0104 28.2503 46.0104H38.7503C39.0725 46.0104 39.3337 46.2715 39.3337 46.5937C39.3337 46.9159 39.0725 47.177 38.7503 47.177H28.2503C27.9282 47.177 27.667 46.9159 27.667 46.5937Z" fill="#F6F8FA" fill-opacity="0.8"/>
<path fill-rule="evenodd" clip-rule="evenodd" d="M27.667 48.5625C27.667 48.2403 27.9282 47.9791 28.2503 47.9791H38.7503C39.0725 47.9791 39.3337 48.2403 39.3337 48.5625C39.3337 48.8846 39.0725 49.1458 38.7503 49.1458H28.2503C27.9282 49.1458 27.667 48.8846 27.667 48.5625Z" fill="#6D778E"/>
<path fill-rule="evenodd" clip-rule="evenodd" d="M27.667 48.5625C27.667 48.2403 27.9282 47.9791 28.2503 47.9791H38.7503C39.0725 47.9791 39.3337 48.2403 39.3337 48.5625C39.3337 48.8846 39.0725 49.1458 38.7503 49.1458H28.2503C27.9282 49.1458 27.667 48.8846 27.667 48.5625Z" fill="#F6F8FA" fill-opacity="0.8"/>
<path fill-rule="evenodd" clip-rule="evenodd" d="M27.667 50.5312C27.667 50.209 27.9282 49.9479 28.2503 49.9479H38.7503C39.0725 49.9479 39.3337 50.209 39.3337 50.5312C39.3337 50.8534 39.0725 51.1145 38.7503 51.1145H28.2503C27.9282 51.1145 27.667 50.8534 27.667 50.5312Z" fill="#6D778E"/>
<path fill-rule="evenodd" clip-rule="evenodd" d="M27.667 50.5312C27.667 50.209 27.9282 49.9479 28.2503 49.9479H38.7503C39.0725 49.9479 39.3337 50.209 39.3337 50.5312C39.3337 50.8534 39.0725 51.1145 38.7503 51.1145H28.2503C27.9282 51.1145 27.667 50.8534 27.667 50.5312Z" fill="#F6F8FA" fill-opacity="0.8"/>
<path fill-rule="evenodd" clip-rule="evenodd" d="M27.667 52.5C27.667 52.1778 27.9282 51.9166 28.2503 51.9166H38.7503C39.0725 51.9166 39.3337 52.1778 39.3337 52.5C39.3337 52.8221 39.0725 53.0833 38.7503 53.0833H28.2503C27.9282 53.0833 27.667 52.8221 27.667 52.5Z" fill="#6D778E"/>
<path fill-rule="evenodd" clip-rule="evenodd" d="M27.667 52.5C27.667 52.1778 27.9282 51.9166 28.2503 51.9166H38.7503C39.0725 51.9166 39.3337 52.1778 39.3337 52.5C39.3337 52.8221 39.0725 53.0833 38.7503 53.0833H28.2503C27.9282 53.0833 27.667 52.8221 27.667 52.5Z" fill="#F6F8FA" fill-opacity="0.8"/>
<path fill-rule="evenodd" clip-rule="evenodd" d="M27.667 54.4687C27.667 54.1465 27.9282 53.8854 28.2503 53.8854H38.7503C39.0725 53.8854 39.3337 54.1465 39.3337 54.4687C39.3337 54.7909 39.0725 55.052 38.7503 55.052H28.2503C27.9282 55.052 27.667 54.7909 27.667 54.4687Z" fill="#6D778E"/>
<path fill-rule="evenodd" clip-rule="evenodd" d="M27.667 54.4687C27.667 54.1465 27.9282 53.8854 28.2503 53.8854H38.7503C39.0725 53.8854 39.3337 54.1465 39.3337 54.4687C39.3337 54.7909 39.0725 55.052 38.7503 55.052H28.2503C27.9282 55.052 27.667 54.7909 27.667 54.4687Z" fill="#F6F8FA" fill-opacity="0.8"/>
<path fill-rule="evenodd" clip-rule="evenodd" d="M27.667 56.4375C27.667 56.1153 27.9282 55.8541 28.2503 55.8541H38.7503C39.0725 55.8541 39.3337 56.1153 39.3337 56.4375C39.3337 56.7596 39.0725 57.0208 38.7503 57.0208H28.2503C27.9282 57.0208 27.667 56.7596 27.667 56.4375Z" fill="#6D778E"/>
<path fill-rule="evenodd" clip-rule="evenodd" d="M27.667 56.4375C27.667 56.1153 27.9282 55.8541 28.2503 55.8541H38.7503C39.0725 55.8541 39.3337 56.1153 39.3337 56.4375C39.3337 56.7596 39.0725 57.0208 38.7503 57.0208H28.2503C27.9282 57.0208 27.667 56.7596 27.667 56.4375Z" fill="#F6F8FA" fill-opacity="0.8"/>
<path fill-rule="evenodd" clip-rule="evenodd" d="M27.667 58.4062C27.667 58.084 27.9282 57.8229 28.2503 57.8229H38.7503C39.0725 57.8229 39.3337 58.084 39.3337 58.4062C39.3337 58.7284 39.0725 58.9895 38.7503 58.9895H28.2503C27.9282 58.9895 27.667 58.7284 27.667 58.4062Z" fill="#6D778E"/>
<path fill-rule="evenodd" clip-rule="evenodd" d="M27.667 58.4062C27.667 58.084 27.9282 57.8229 28.2503 57.8229H38.7503C39.0725 57.8229 39.3337 58.084 39.3337 58.4062C39.3337 58.7284 39.0725 58.9895 38.7503 58.9895H28.2503C27.9282 58.9895 27.667 58.7284 27.667 58.4062Z" fill="#F6F8FA" fill-opacity="0.8"/>
<path fill-rule="evenodd" clip-rule="evenodd" d="M27.667 60.375C27.667 60.0528 27.9282 59.7916 28.2503 59.7916H38.7503C39.0725 59.7916 39.3337 60.0528 39.3337 60.375C39.3337 60.6971 39.0725 60.9583 38.7503 60.9583H28.2503C27.9282 60.9583 27.667 60.6971 27.667 60.375Z" fill="#6D778E"/>
<path fill-rule="evenodd" clip-rule="evenodd" d="M27.667 60.375C27.667 60.0528 27.9282 59.7916 28.2503 59.7916H38.7503C39.0725 59.7916 39.3337 60.0528 39.3337 60.375C39.3337 60.6971 39.0725 60.9583 38.7503 60.9583H28.2503C27.9282 60.9583 27.667 60.6971 27.667 60.375Z" fill="#F6F8FA" fill-opacity="0.8"/>
</g>
<g filter="url(#filter1_d_2304_12949)">
<rect x="57.85" y="12.1" width="19.55" height="15.8" rx="2.65" fill="#6D778E"/>
<rect x="57.85" y="12.1" width="19.55" height="15.8" rx="2.65" fill="#F6F8FA" fill-opacity="0.975"/>
<rect x="57.85" y="12.1" width="19.55" height="15.8" rx="2.65" fill="url(#paint0_linear_2304_12949)" fill-opacity="0.75"/>
<rect x="57.85" y="12.1" width="19.55" height="15.8" rx="2.65" stroke="#6D778E" stroke-width="0.7"/>
<rect x="57.85" y="12.1" width="19.55" height="15.8" rx="2.65" stroke="#F6F8FA" stroke-opacity="0.8" stroke-width="0.7"/>
<path d="M65.5898 22.0743V17.9228C65.5898 17.7402 65.6383 17.6033 65.7354 17.512C65.8324 17.4207 65.9484 17.375 66.0835 17.375C66.2014 17.375 66.3174 17.4073 66.4316 17.472L69.884 19.4864C70.0153 19.5625 70.1132 19.6395 70.1779 19.7175C70.2426 19.7936 70.2749 19.8878 70.2749 20C70.2749 20.1084 70.2426 20.2026 70.1779 20.2825C70.1132 20.3605 70.0153 20.4365 69.884 20.5107L66.4316 22.5251C66.3174 22.5917 66.2014 22.625 66.0835 22.625C65.9484 22.625 65.8324 22.5784 65.7354 22.4852C65.6383 22.3939 65.5898 22.2569 65.5898 22.0743Z" fill="#626A80"/>
<path d="M65.5898 22.0743V17.9228C65.5898 17.7402 65.6383 17.6033 65.7354 17.512C65.8324 17.4207 65.9484 17.375 66.0835 17.375C66.2014 17.375 66.3174 17.4073 66.4316 17.472L69.884 19.4864C70.0153 19.5625 70.1132 19.6395 70.1779 19.7175C70.2426 19.7936 70.2749 19.8878 70.2749 20C70.2749 20.1084 70.2426 20.2026 70.1779 20.2825C70.1132 20.3605 70.0153 20.4365 69.884 20.5107L66.4316 22.5251C66.3174 22.5917 66.2014 22.625 66.0835 22.625C65.9484 22.625 65.8324 22.5784 65.7354 22.4852C65.6383 22.3939 65.5898 22.2569 65.5898 22.0743Z" fill="#F6F8FA" fill-opacity="0.15"/>
<path fill-rule="evenodd" clip-rule="evenodd" d="M59.375 14.2773C59.375 13.9171 59.6671 13.625 60.0273 13.625H61.4087C61.769 13.625 62.0611 13.9171 62.0611 14.2773C62.0611 14.6376 61.769 14.9297 61.4087 14.9297H60.0273C59.6671 14.9297 59.375 14.6376 59.375 14.2773Z" fill="#626A80"/>
<path fill-rule="evenodd" clip-rule="evenodd" d="M59.375 14.2773C59.375 13.9171 59.6671 13.625 60.0273 13.625H61.4087C61.769 13.625 62.0611 13.9171 62.0611 14.2773C62.0611 14.6376 61.769 14.9297 61.4087 14.9297H60.0273C59.6671 14.9297 59.375 14.6376 59.375 14.2773Z" fill="#F6F8FA" fill-opacity="0.65"/>
<path fill-rule="evenodd" clip-rule="evenodd" d="M62.8281 14.2773C62.8281 13.9171 63.1202 13.625 63.4805 13.625H64.8619C65.2221 13.625 65.5142 13.9171 65.5142 14.2773C65.5142 14.6376 65.2221 14.9297 64.8619 14.9297H63.4805C63.1202 14.9297 62.8281 14.6376 62.8281 14.2773Z" fill="#626A80"/>
<path fill-rule="evenodd" clip-rule="evenodd" d="M62.8281 14.2773C62.8281 13.9171 63.1202 13.625 63.4805 13.625H64.8619C65.2221 13.625 65.5142 13.9171 65.5142 14.2773C65.5142 14.6376 65.2221 14.9297 64.8619 14.9297H63.4805C63.1202 14.9297 62.8281 14.6376 62.8281 14.2773Z" fill="#F6F8FA" fill-opacity="0.65"/>
<path fill-rule="evenodd" clip-rule="evenodd" d="M66.2822 14.2773C66.2822 13.9171 66.5743 13.625 66.9346 13.625H68.316C68.6762 13.625 68.9683 13.9171 68.9683 14.2773C68.9683 14.6376 68.6762 14.9297 68.316 14.9297H66.9346C66.5743 14.9297 66.2822 14.6376 66.2822 14.2773Z" fill="#626A80"/>
<path fill-rule="evenodd" clip-rule="evenodd" d="M66.2822 14.2773C66.2822 13.9171 66.5743 13.625 66.9346 13.625H68.316C68.6762 13.625 68.9683 13.9171 68.9683 14.2773C68.9683 14.6376 68.6762 14.9297 68.316 14.9297H66.9346C66.5743 14.9297 66.2822 14.6376 66.2822 14.2773Z" fill="#F6F8FA" fill-opacity="0.65"/>
<path fill-rule="evenodd" clip-rule="evenodd" d="M69.7354 14.2773C69.7354 13.9171 70.0274 13.625 70.3877 13.625H71.7691C72.1294 13.625 72.4214 13.9171 72.4214 14.2773C72.4214 14.6376 72.1294 14.9297 71.7691 14.9297H70.3877C70.0274 14.9297 69.7354 14.6376 69.7354 14.2773Z" fill="#626A80"/>
<path fill-rule="evenodd" clip-rule="evenodd" d="M69.7354 14.2773C69.7354 13.9171 70.0274 13.625 70.3877 13.625H71.7691C72.1294 13.625 72.4214 13.9171 72.4214 14.2773C72.4214 14.6376 72.1294 14.9297 71.7691 14.9297H70.3877C70.0274 14.9297 69.7354 14.6376 69.7354 14.2773Z" fill="#F6F8FA" fill-opacity="0.65"/>
<path fill-rule="evenodd" clip-rule="evenodd" d="M73.1885 14.2773C73.1885 13.9171 73.4805 13.625 73.8408 13.625H75.2222C75.5825 13.625 75.8745 13.9171 75.8745 14.2773C75.8745 14.6376 75.5825 14.9297 75.2222 14.9297H73.8408C73.4805 14.9297 73.1885 14.6376 73.1885 14.2773Z" fill="#626A80"/>
<path fill-rule="evenodd" clip-rule="evenodd" d="M73.1885 14.2773C73.1885 13.9171 73.4805 13.625 73.8408 13.625H75.2222C75.5825 13.625 75.8745 13.9171 75.8745 14.2773C75.8745 14.6376 75.5825 14.9297 75.2222 14.9297H73.8408C73.4805 14.9297 73.1885 14.6376 73.1885 14.2773Z" fill="#F6F8FA" fill-opacity="0.65"/>
<path fill-rule="evenodd" clip-rule="evenodd" d="M59.375 25.7224C59.375 25.3621 59.6671 25.0701 60.0273 25.0701H61.4087C61.769 25.0701 62.0611 25.3621 62.0611 25.7224C62.0611 26.0827 61.769 26.3747 61.4087 26.3747H60.0273C59.6671 26.3747 59.375 26.0827 59.375 25.7224Z" fill="#626A80"/>
<path fill-rule="evenodd" clip-rule="evenodd" d="M59.375 25.7224C59.375 25.3621 59.6671 25.0701 60.0273 25.0701H61.4087C61.769 25.0701 62.0611 25.3621 62.0611 25.7224C62.0611 26.0827 61.769 26.3747 61.4087 26.3747H60.0273C59.6671 26.3747 59.375 26.0827 59.375 25.7224Z" fill="#F6F8FA" fill-opacity="0.65"/>
<path fill-rule="evenodd" clip-rule="evenodd" d="M62.8281 25.7224C62.8281 25.3621 63.1202 25.0701 63.4805 25.0701H64.8619C65.2221 25.0701 65.5142 25.3621 65.5142 25.7224C65.5142 26.0827 65.2221 26.3747 64.8619 26.3747H63.4805C63.1202 26.3747 62.8281 26.0827 62.8281 25.7224Z" fill="#626A80"/>
<path fill-rule="evenodd" clip-rule="evenodd" d="M62.8281 25.7224C62.8281 25.3621 63.1202 25.0701 63.4805 25.0701H64.8619C65.2221 25.0701 65.5142 25.3621 65.5142 25.7224C65.5142 26.0827 65.2221 26.3747 64.8619 26.3747H63.4805C63.1202 26.3747 62.8281 26.0827 62.8281 25.7224Z" fill="#F6F8FA" fill-opacity="0.65"/>
<path fill-rule="evenodd" clip-rule="evenodd" d="M66.2822 25.7224C66.2822 25.3621 66.5743 25.0701 66.9346 25.0701H68.316C68.6762 25.0701 68.9683 25.3621 68.9683 25.7224C68.9683 26.0827 68.6762 26.3747 68.316 26.3747H66.9346C66.5743 26.3747 66.2822 26.0827 66.2822 25.7224Z" fill="#626A80"/>
<path fill-rule="evenodd" clip-rule="evenodd" d="M66.2822 25.7224C66.2822 25.3621 66.5743 25.0701 66.9346 25.0701H68.316C68.6762 25.0701 68.9683 25.3621 68.9683 25.7224C68.9683 26.0827 68.6762 26.3747 68.316 26.3747H66.9346C66.5743 26.3747 66.2822 26.0827 66.2822 25.7224Z" fill="#F6F8FA" fill-opacity="0.65"/>
<path fill-rule="evenodd" clip-rule="evenodd" d="M69.7354 25.7224C69.7354 25.3621 70.0274 25.0701 70.3877 25.0701H71.7691C72.1294 25.0701 72.4214 25.3621 72.4214 25.7224C72.4214 26.0827 72.1294 26.3747 71.7691 26.3747H70.3877C70.0274 26.3747 69.7354 26.0827 69.7354 25.7224Z" fill="#626A80"/>
<path fill-rule="evenodd" clip-rule="evenodd" d="M69.7354 25.7224C69.7354 25.3621 70.0274 25.0701 70.3877 25.0701H71.7691C72.1294 25.0701 72.4214 25.3621 72.4214 25.7224C72.4214 26.0827 72.1294 26.3747 71.7691 26.3747H70.3877C70.0274 26.3747 69.7354 26.0827 69.7354 25.7224Z" fill="#F6F8FA" fill-opacity="0.65"/>
<path fill-rule="evenodd" clip-rule="evenodd" d="M73.1885 25.7224C73.1885 25.3621 73.4805 25.0701 73.8408 25.0701H75.2222C75.5825 25.0701 75.8745 25.3621 75.8745 25.7224C75.8745 26.0827 75.5825 26.3747 75.2222 26.3747H73.8408C73.4805 26.3747 73.1885 26.0827 73.1885 25.7224Z" fill="#626A80"/>
<path fill-rule="evenodd" clip-rule="evenodd" d="M73.1885 25.7224C73.1885 25.3621 73.4805 25.0701 73.8408 25.0701H75.2222C75.5825 25.0701 75.8745 25.3621 75.8745 25.7224C75.8745 26.0827 75.5825 26.3747 75.2222 26.3747H73.8408C73.4805 26.3747 73.1885 26.0827 73.1885 25.7224Z" fill="#F6F8FA" fill-opacity="0.65"/>
</g>
<g filter="url(#filter2_d_2304_12949)">
<g clip-path="url(#clip0_2304_12949)">
<rect x="33" y="18" width="36" height="36" rx="18" fill="#616A81"/>
<rect x="33" y="18" width="36" height="36" rx="18" fill="#F6F8FA" fill-opacity="0.25"/>
<rect width="120.637" height="0.855583" transform="translate(33 18)" fill="#DDE3F3"/>
</g>
<rect x="33.75" y="18.75" width="34.5" height="34.5" rx="17.25" stroke="#DDE3F3" stroke-width="1.5"/>
<rect x="33.75" y="18.75" width="34.5" height="34.5" rx="17.25" stroke="#6D778E" stroke-width="1.5"/>
<rect x="33.75" y="18.75" width="34.5" height="34.5" rx="17.25" stroke="#F6F8FA" stroke-opacity="0.45" stroke-width="1.5"/>
</g>
<g filter="url(#filter3_d_2304_12949)">
<path fill-rule="evenodd" clip-rule="evenodd" d="M51 24C52.036 24 53.0035 24.2423 53.9024 24.7268C54.8015 25.2115 55.5257 25.9348 56.0743 26.8965C56.6305 27.8505 56.9087 29.0395 56.9087 30.4628V33.2008C57.5056 33.2833 57.9779 33.5042 58.325 33.8665C58.7745 34.3358 59 35.0405 59 35.9791V44.1605C59 45.1068 58.7745 45.8148 58.325 46.2841C57.8755 46.7609 57.2167 47 56.3483 47H45.6517C44.7832 47 44.1237 46.761 43.6741 46.2841C43.2247 45.8148 43 45.1067 43 44.1605V35.9791C43 35.0405 43.2246 34.3358 43.6741 33.8665C44.0214 33.504 44.4941 33.2833 45.0913 33.2008V30.4628C45.0913 29.0395 45.3655 27.8505 45.9141 26.8965C46.4702 25.9349 47.1978 25.2115 48.0967 24.7268C48.9958 24.2422 49.9638 24 51 24ZM51 26.0657C50.3219 26.0657 49.6968 26.2271 49.1254 26.5502C48.554 26.8734 48.0967 27.3465 47.7538 27.9696C47.411 28.585 47.2399 29.3431 47.2399 30.2432V33.1631H54.7709V30.2432C54.7708 29.3431 54.5958 28.585 54.2453 27.9696C53.9025 27.3465 53.4451 26.8733 52.8738 26.5502C52.3025 26.2273 51.6779 26.0657 51 26.0657Z" fill="#1E2539"/>
<path fill-rule="evenodd" clip-rule="evenodd" d="M51 24C52.036 24 53.0035 24.2423 53.9024 24.7268C54.8015 25.2115 55.5257 25.9348 56.0743 26.8965C56.6305 27.8505 56.9087 29.0395 56.9087 30.4628V33.2008C57.5056 33.2833 57.9779 33.5042 58.325 33.8665C58.7745 34.3358 59 35.0405 59 35.9791V44.1605C59 45.1068 58.7745 45.8148 58.325 46.2841C57.8755 46.7609 57.2167 47 56.3483 47H45.6517C44.7832 47 44.1237 46.761 43.6741 46.2841C43.2247 45.8148 43 45.1067 43 44.1605V35.9791C43 35.0405 43.2246 34.3358 43.6741 33.8665C44.0214 33.504 44.4941 33.2833 45.0913 33.2008V30.4628C45.0913 29.0395 45.3655 27.8505 45.9141 26.8965C46.4702 25.9349 47.1978 25.2115 48.0967 24.7268C48.9958 24.2422 49.9638 24 51 24ZM51 26.0657C50.3219 26.0657 49.6968 26.2271 49.1254 26.5502C48.554 26.8734 48.0967 27.3465 47.7538 27.9696C47.411 28.585 47.2399 29.3431 47.2399 30.2432V33.1631H54.7709V30.2432C54.7708 29.3431 54.5958 28.585 54.2453 27.9696C53.9025 27.3465 53.4451 26.8733 52.8738 26.5502C52.3025 26.2273 51.6779 26.0657 51 26.0657Z" fill="#F6F8FA" fill-opacity="0.9"/>
<path fill-rule="evenodd" clip-rule="evenodd" d="M51 24C52.036 24 53.0035 24.2423 53.9024 24.7268C54.8015 25.2115 55.5257 25.9348 56.0743 26.8965C56.6305 27.8505 56.9087 29.0395 56.9087 30.4628V33.2008C57.5056 33.2833 57.9779 33.5042 58.325 33.8665C58.7745 34.3358 59 35.0405 59 35.9791V44.1605C59 45.1068 58.7745 45.8148 58.325 46.2841C57.8755 46.7609 57.2167 47 56.3483 47H45.6517C44.7832 47 44.1237 46.761 43.6741 46.2841C43.2247 45.8148 43 45.1067 43 44.1605V35.9791C43 35.0405 43.2246 34.3358 43.6741 33.8665C44.0214 33.504 44.4941 33.2833 45.0913 33.2008V30.4628C45.0913 29.0395 45.3655 27.8505 45.9141 26.8965C46.4702 25.9349 47.1978 25.2115 48.0967 24.7268C48.9958 24.2422 49.9638 24 51 24ZM51 26.0657C50.3219 26.0657 49.6968 26.2271 49.1254 26.5502C48.554 26.8734 48.0967 27.3465 47.7538 27.9696C47.411 28.585 47.2399 29.3431 47.2399 30.2432V33.1631H54.7709V30.2432C54.7708 29.3431 54.5958 28.585 54.2453 27.9696C53.9025 27.3465 53.4451 26.8733 52.8738 26.5502C52.3025 26.2273 51.6779 26.0657 51 26.0657Z" fill="url(#paint1_linear_2304_12949)" fill-opacity="0.1"/>
</g>
<g filter="url(#filter4_d_2304_12949)">
<path d="M63.3281 42.4668H66.5C66.8675 42.4668 67.1722 42.4932 67.418 42.542C67.6548 42.589 67.8685 42.6689 68.0615 42.7793L68.0713 42.7852C68.2705 42.8924 68.4917 43.0501 68.7334 43.2656H68.7344L69.373 43.833L69.3818 43.8408C69.7199 44.1267 70.0572 44.3468 70.3926 44.4834C70.7407 44.6251 71.1443 44.6865 71.5879 44.6865H82.0117C83.1284 44.6866 83.8983 44.9943 84.4043 45.5391L84.4062 45.541C84.8644 46.0283 85.1487 46.7433 85.209 47.7432V48.2598H66.4189C65.2956 48.2598 64.5171 48.4395 63.9883 49.0449C63.7374 49.3323 63.5702 49.6856 63.4346 50.0771C63.3029 50.4573 63.1886 50.9091 63.0625 51.418L60.4658 57.29V45.8486C60.4658 44.6412 60.7433 43.8162 61.2188 43.291C61.7038 42.7557 62.3865 42.4668 63.3281 42.4668Z" fill="#6D778E"/>
<path d="M63.3281 42.4668H66.5C66.8675 42.4668 67.1722 42.4932 67.418 42.542C67.6548 42.589 67.8685 42.6689 68.0615 42.7793L68.0713 42.7852C68.2705 42.8924 68.4917 43.0501 68.7334 43.2656H68.7344L69.373 43.833L69.3818 43.8408C69.7199 44.1267 70.0572 44.3468 70.3926 44.4834C70.7407 44.6251 71.1443 44.6865 71.5879 44.6865H82.0117C83.1284 44.6866 83.8983 44.9943 84.4043 45.5391L84.4062 45.541C84.8644 46.0283 85.1487 46.7433 85.209 47.7432V48.2598H66.4189C65.2956 48.2598 64.5171 48.4395 63.9883 49.0449C63.7374 49.3323 63.5702 49.6856 63.4346 50.0771C63.3029 50.4573 63.1886 50.9091 63.0625 51.418L60.4658 57.29V45.8486C60.4658 44.6412 60.7433 43.8162 61.2188 43.291C61.7038 42.7557 62.3865 42.4668 63.3281 42.4668Z" fill="#F6F8F9" fill-opacity="0.975"/>
<path d="M63.3281 42.4668H66.5C66.8675 42.4668 67.1722 42.4932 67.418 42.542C67.6548 42.589 67.8685 42.6689 68.0615 42.7793L68.0713 42.7852C68.2705 42.8924 68.4917 43.0501 68.7334 43.2656H68.7344L69.373 43.833L69.3818 43.8408C69.7199 44.1267 70.0572 44.3468 70.3926 44.4834C70.7407 44.6251 71.1443 44.6865 71.5879 44.6865H82.0117C83.1284 44.6866 83.8983 44.9943 84.4043 45.5391L84.4062 45.541C84.8644 46.0283 85.1487 46.7433 85.209 47.7432V48.2598H66.4189C65.2956 48.2598 64.5171 48.4395 63.9883 49.0449C63.7374 49.3323 63.5702 49.6856 63.4346 50.0771C63.3029 50.4573 63.1886 50.9091 63.0625 51.418L60.4658 57.29V45.8486C60.4658 44.6412 60.7433 43.8162 61.2188 43.291C61.7038 42.7557 62.3865 42.4668 63.3281 42.4668Z" fill="url(#paint2_linear_2304_12949)" fill-opacity="0.75"/>
<path d="M63.3281 42.4668H66.5C66.8675 42.4668 67.1722 42.4932 67.418 42.542C67.6548 42.589 67.8685 42.6689 68.0615 42.7793L68.0713 42.7852C68.2705 42.8924 68.4917 43.0501 68.7334 43.2656H68.7344L69.373 43.833L69.3818 43.8408C69.7199 44.1267 70.0572 44.3468 70.3926 44.4834C70.7407 44.6251 71.1443 44.6865 71.5879 44.6865H82.0117C83.1284 44.6866 83.8983 44.9943 84.4043 45.5391L84.4062 45.541C84.8644 46.0283 85.1487 46.7433 85.209 47.7432V48.2598H66.4189C65.2956 48.2598 64.5171 48.4395 63.9883 49.0449C63.7374 49.3323 63.5702 49.6856 63.4346 50.0771C63.3029 50.4573 63.1886 50.9091 63.0625 51.418L60.4658 57.29V45.8486C60.4658 44.6412 60.7433 43.8162 61.2188 43.291C61.7038 42.7557 62.3865 42.4668 63.3281 42.4668Z" stroke="#6D778C" stroke-width="0.933333"/>
<path d="M63.3281 42.4668H66.5C66.8675 42.4668 67.1722 42.4932 67.418 42.542C67.6548 42.589 67.8685 42.6689 68.0615 42.7793L68.0713 42.7852C68.2705 42.8924 68.4917 43.0501 68.7334 43.2656H68.7344L69.373 43.833L69.3818 43.8408C69.7199 44.1267 70.0572 44.3468 70.3926 44.4834C70.7407 44.6251 71.1443 44.6865 71.5879 44.6865H82.0117C83.1284 44.6866 83.8983 44.9943 84.4043 45.5391L84.4062 45.541C84.8644 46.0283 85.1487 46.7433 85.209 47.7432V48.2598H66.4189C65.2956 48.2598 64.5171 48.4395 63.9883 49.0449C63.7374 49.3323 63.5702 49.6856 63.4346 50.0771C63.3029 50.4573 63.1886 50.9091 63.0625 51.418L60.4658 57.29V45.8486C60.4658 44.6412 60.7433 43.8162 61.2188 43.291C61.7038 42.7557 62.3865 42.4668 63.3281 42.4668Z" stroke="#F6F8F9" stroke-opacity="0.8" stroke-width="0.933333"/>
<mask id="path-19-inside-1_2304_12949" fill="white">
<path d="M62.8782 62.5075C61.6678 62.5075 60.8383 62.161 60.3897 61.4681C59.9391 60.7836 59.8793 59.7734 60.2101 58.4377L62.5288 49.0779C62.813 47.9303 64.0019 47 65.1842 47H86.5915C87.7738 47 88.5017 47.9303 88.2175 49.0779L85.8988 58.4377C85.568 59.7734 85.0189 60.7836 84.2515 61.4681C83.4821 62.161 82.5632 62.5075 81.4947 62.5075H62.8782Z"/>
</mask>
<path d="M62.8782 62.5075C61.6678 62.5075 60.8383 62.161 60.3897 61.4681C59.9391 60.7836 59.8793 59.7734 60.2101 58.4377L62.5288 49.0779C62.813 47.9303 64.0019 47 65.1842 47H86.5915C87.7738 47 88.5017 47.9303 88.2175 49.0779L85.8988 58.4377C85.568 59.7734 85.0189 60.7836 84.2515 61.4681C83.4821 62.161 82.5632 62.5075 81.4947 62.5075H62.8782Z" fill="#6D778E"/>
<path d="M62.8782 62.5075C61.6678 62.5075 60.8383 62.161 60.3897 61.4681C59.9391 60.7836 59.8793 59.7734 60.2101 58.4377L62.5288 49.0779C62.813 47.9303 64.0019 47 65.1842 47H86.5915C87.7738 47 88.5017 47.9303 88.2175 49.0779L85.8988 58.4377C85.568 59.7734 85.0189 60.7836 84.2515 61.4681C83.4821 62.161 82.5632 62.5075 81.4947 62.5075H62.8782Z" fill="#F6F8F9" fill-opacity="0.975"/>
<path d="M62.8782 62.5075C61.6678 62.5075 60.8383 62.161 60.3897 61.4681C59.9391 60.7836 59.8793 59.7734 60.2101 58.4377L62.5288 49.0779C62.813 47.9303 64.0019 47 65.1842 47H86.5915C87.7738 47 88.5017 47.9303 88.2175 49.0779L85.8988 58.4377C85.568 59.7734 85.0189 60.7836 84.2515 61.4681C83.4821 62.161 82.5632 62.5075 81.4947 62.5075H62.8782Z" fill="url(#paint3_linear_2304_12949)" fill-opacity="0.75"/>
<path d="M60.3897 61.4681L61.1732 60.9609L61.1693 60.9549L60.3897 61.4681ZM60.2101 58.4377L61.1161 58.6622V58.6622L60.2101 58.4377ZM85.8988 58.4377L86.8048 58.6622V58.6622L85.8988 58.4377ZM84.2515 61.4681L83.6302 60.7716L83.6269 60.7746L84.2515 61.4681ZM62.5288 49.0779L61.6228 48.8535V48.8535L62.5288 49.0779ZM88.2175 49.0779L87.3115 48.8535L88.2175 49.0779ZM62.8782 62.5075V61.5741C61.8256 61.5741 61.3784 61.2779 61.1732 60.9609L60.3897 61.4681L59.6062 61.9753C60.2981 63.0441 61.5099 63.4408 62.8782 63.4408V62.5075ZM60.3897 61.4681L61.1693 60.9549C60.9338 60.5972 60.8073 59.9089 61.1161 58.6622L60.2101 58.4377L59.3042 58.2133C58.9513 59.638 58.9444 60.97 59.6101 61.9813L60.3897 61.4681ZM88.2175 49.0779L87.3115 48.8535L84.9929 58.2133L85.8988 58.4377L86.8048 58.6622L89.1234 49.3023L88.2175 49.0779ZM85.8988 58.4377L84.9929 58.2133C84.6922 59.4272 84.217 60.2481 83.6302 60.7716L84.2515 61.4681L84.8729 62.1646C85.8207 61.319 86.4437 60.1197 86.8048 58.6622L85.8988 58.4377ZM84.2515 61.4681L83.6269 60.7746C83.0349 61.3078 82.3406 61.5741 81.4947 61.5741V62.5075V63.4408C82.7857 63.4408 83.9294 63.0143 84.8761 62.1617L84.2515 61.4681ZM81.4947 62.5075V61.5741H62.8782V62.5075V63.4408H81.4947V62.5075ZM60.2101 58.4377L61.1161 58.6622L63.4347 49.3023L62.5288 49.0779L61.6228 48.8535L59.3042 58.2133L60.2101 58.4377ZM65.1842 47V47.9333H86.5915V47V46.0667H65.1842V47ZM62.5288 49.0779L63.4347 49.3023C63.6158 48.5712 64.4309 47.9333 65.1842 47.9333V47V46.0667C63.5729 46.0667 62.0102 47.2894 61.6228 48.8535L62.5288 49.0779ZM88.2175 49.0779L89.1234 49.3023C89.3261 48.484 89.1812 47.6618 88.6895 47.0334C88.1978 46.4051 87.4346 46.0667 86.5915 46.0667V47V47.9333C86.9306 47.9333 87.1226 48.0601 87.2194 48.1838C87.3162 48.3075 87.3931 48.5243 87.3115 48.8535L88.2175 49.0779Z" fill="#6D778C" mask="url(#path-19-inside-1_2304_12949)"/>
<path d="M60.3897 61.4681L61.1732 60.9609L61.1693 60.9549L60.3897 61.4681ZM60.2101 58.4377L61.1161 58.6622V58.6622L60.2101 58.4377ZM85.8988 58.4377L86.8048 58.6622V58.6622L85.8988 58.4377ZM84.2515 61.4681L83.6302 60.7716L83.6269 60.7746L84.2515 61.4681ZM62.5288 49.0779L61.6228 48.8535V48.8535L62.5288 49.0779ZM88.2175 49.0779L87.3115 48.8535L88.2175 49.0779ZM62.8782 62.5075V61.5741C61.8256 61.5741 61.3784 61.2779 61.1732 60.9609L60.3897 61.4681L59.6062 61.9753C60.2981 63.0441 61.5099 63.4408 62.8782 63.4408V62.5075ZM60.3897 61.4681L61.1693 60.9549C60.9338 60.5972 60.8073 59.9089 61.1161 58.6622L60.2101 58.4377L59.3042 58.2133C58.9513 59.638 58.9444 60.97 59.6101 61.9813L60.3897 61.4681ZM88.2175 49.0779L87.3115 48.8535L84.9929 58.2133L85.8988 58.4377L86.8048 58.6622L89.1234 49.3023L88.2175 49.0779ZM85.8988 58.4377L84.9929 58.2133C84.6922 59.4272 84.217 60.2481 83.6302 60.7716L84.2515 61.4681L84.8729 62.1646C85.8207 61.319 86.4437 60.1197 86.8048 58.6622L85.8988 58.4377ZM84.2515 61.4681L83.6269 60.7746C83.0349 61.3078 82.3406 61.5741 81.4947 61.5741V62.5075V63.4408C82.7857 63.4408 83.9294 63.0143 84.8761 62.1617L84.2515 61.4681ZM81.4947 62.5075V61.5741H62.8782V62.5075V63.4408H81.4947V62.5075ZM60.2101 58.4377L61.1161 58.6622L63.4347 49.3023L62.5288 49.0779L61.6228 48.8535L59.3042 58.2133L60.2101 58.4377ZM65.1842 47V47.9333H86.5915V47V46.0667H65.1842V47ZM62.5288 49.0779L63.4347 49.3023C63.6158 48.5712 64.4309 47.9333 65.1842 47.9333V47V46.0667C63.5729 46.0667 62.0102 47.2894 61.6228 48.8535L62.5288 49.0779ZM88.2175 49.0779L89.1234 49.3023C89.3261 48.484 89.1812 47.6618 88.6895 47.0334C88.1978 46.4051 87.4346 46.0667 86.5915 46.0667V47V47.9333C86.9306 47.9333 87.1226 48.0601 87.2194 48.1838C87.3162 48.3075 87.3931 48.5243 87.3115 48.8535L88.2175 49.0779Z" fill="#F6F8F9" fill-opacity="0.8" mask="url(#path-19-inside-1_2304_12949)"/>
</g>
<g filter="url(#filter5_d_2304_12949)">
<rect x="15.35" y="4.35" width="23.3" height="31.3" rx="3.20556" fill="white"/>
<rect x="15.35" y="4.35" width="23.3" height="31.3" rx="3.20556" stroke="#626A80" stroke-width="0.7"/>
<rect x="15.35" y="4.35" width="23.3" height="31.3" rx="3.20556" stroke="#F6F8FA" stroke-opacity="0.8" stroke-width="0.7"/>
<path fill-rule="evenodd" clip-rule="evenodd" d="M18.584 11.2623C18.584 10.7714 18.982 10.3734 19.4729 10.3734H27.4729C27.9638 10.3734 28.3618 10.7714 28.3618 11.2623C28.3618 11.7532 27.9638 12.1512 27.4729 12.1512H19.4729C18.982 12.1512 18.584 11.7532 18.584 11.2623Z" fill="#626A80"/>
<path fill-rule="evenodd" clip-rule="evenodd" d="M18.584 11.2623C18.584 10.7714 18.982 10.3734 19.4729 10.3734H27.4729C27.9638 10.3734 28.3618 10.7714 28.3618 11.2623C28.3618 11.7532 27.9638 12.1512 27.4729 12.1512H19.4729C18.982 12.1512 18.584 11.7532 18.584 11.2623Z" fill="#F6F8FA" fill-opacity="0.15"/>
<path fill-rule="evenodd" clip-rule="evenodd" d="M18.584 14.2685C18.584 13.7776 18.982 13.3796 19.4729 13.3796H34.5276C35.0185 13.3796 35.4165 13.7776 35.4165 14.2685C35.4165 14.7594 35.0185 15.1574 34.5276 15.1574H19.4729C18.982 15.1574 18.584 14.7594 18.584 14.2685ZM18.584 16.9352C18.584 16.4443 18.982 16.0463 19.4729 16.0463H34.5276C35.0185 16.0463 35.4165 16.4443 35.4165 16.9352C35.4165 17.4261 35.0185 17.8241 34.5276 17.8241H19.4729C18.982 17.8241 18.584 17.4261 18.584 16.9352ZM18.584 19.6019C18.584 19.1109 18.982 18.713 19.4729 18.713H34.5276C35.0185 18.713 35.4165 19.1109 35.4165 19.6019C35.4165 20.0928 35.0185 20.4907 34.5276 20.4907H19.4729C18.982 20.4907 18.584 20.0928 18.584 19.6019ZM18.584 22.2685C18.584 21.7776 18.982 21.3796 19.4729 21.3796H34.5276C35.0185 21.3796 35.4165 21.7776 35.4165 22.2685C35.4165 22.7594 35.0185 23.1574 34.5276 23.1574H19.4729C18.982 23.1574 18.584 22.7594 18.584 22.2685Z" fill="#626A80"/>
<path fill-rule="evenodd" clip-rule="evenodd" d="M18.584 14.2685C18.584 13.7776 18.982 13.3796 19.4729 13.3796H34.5276C35.0185 13.3796 35.4165 13.7776 35.4165 14.2685C35.4165 14.7594 35.0185 15.1574 34.5276 15.1574H19.4729C18.982 15.1574 18.584 14.7594 18.584 14.2685ZM18.584 16.9352C18.584 16.4443 18.982 16.0463 19.4729 16.0463H34.5276C35.0185 16.0463 35.4165 16.4443 35.4165 16.9352C35.4165 17.4261 35.0185 17.8241 34.5276 17.8241H19.4729C18.982 17.8241 18.584 17.4261 18.584 16.9352ZM18.584 19.6019C18.584 19.1109 18.982 18.713 19.4729 18.713H34.5276C35.0185 18.713 35.4165 19.1109 35.4165 19.6019C35.4165 20.0928 35.0185 20.4907 34.5276 20.4907H19.4729C18.982 20.4907 18.584 20.0928 18.584 19.6019ZM18.584 22.2685C18.584 21.7776 18.982 21.3796 19.4729 21.3796H34.5276C35.0185 21.3796 35.4165 21.7776 35.4165 22.2685C35.4165 22.7594 35.0185 23.1574 34.5276 23.1574H19.4729C18.982 23.1574 18.584 22.7594 18.584 22.2685Z" fill="#F6F8FA" fill-opacity="0.8"/>
<path fill-rule="evenodd" clip-rule="evenodd" d="M18.584 24.9666C18.584 24.4757 18.982 24.0777 19.4729 24.0777H34.5276C35.0185 24.0777 35.4165 24.4757 35.4165 24.9666C35.4165 25.4575 35.0185 25.8555 34.5276 25.8555H19.4729C18.982 25.8555 18.584 25.4575 18.584 24.9666ZM18.584 27.6333C18.584 27.1424 18.982 26.7444 19.4729 26.7444H34.5276C35.0185 26.7444 35.4165 27.1424 35.4165 27.6333C35.4165 28.1242 35.0185 28.5222 34.5276 28.5222H19.4729C18.982 28.5222 18.584 28.1242 18.584 27.6333ZM18.584 30.3C18.584 29.809 18.982 29.4111 19.4729 29.4111H34.5276C35.0185 29.4111 35.4165 29.809 35.4165 30.3C35.4165 30.7909 35.0185 31.1888 34.5276 31.1888H19.4729C18.982 31.1888 18.584 30.7909 18.584 30.3ZM18.584 32.9666C18.584 32.4757 18.982 32.0777 19.4729 32.0777H34.5276C35.0185 32.0777 35.4165 32.4757 35.4165 32.9666C35.4165 33.4575 35.0185 33.8555 34.5276 33.8555H19.4729C18.982 33.8555 18.584 33.4575 18.584 32.9666Z" fill="#626A80"/>
<path fill-rule="evenodd" clip-rule="evenodd" d="M18.584 24.9666C18.584 24.4757 18.982 24.0777 19.4729 24.0777H34.5276C35.0185 24.0777 35.4165 24.4757 35.4165 24.9666C35.4165 25.4575 35.0185 25.8555 34.5276 25.8555H19.4729C18.982 25.8555 18.584 25.4575 18.584 24.9666ZM18.584 27.6333C18.584 27.1424 18.982 26.7444 19.4729 26.7444H34.5276C35.0185 26.7444 35.4165 27.1424 35.4165 27.6333C35.4165 28.1242 35.0185 28.5222 34.5276 28.5222H19.4729C18.982 28.5222 18.584 28.1242 18.584 27.6333ZM18.584 30.3C18.584 29.809 18.982 29.4111 19.4729 29.4111H34.5276C35.0185 29.4111 35.4165 29.809 35.4165 30.3C35.4165 30.7909 35.0185 31.1888 34.5276 31.1888H19.4729C18.982 31.1888 18.584 30.7909 18.584 30.3ZM18.584 32.9666C18.584 32.4757 18.982 32.0777 19.4729 32.0777H34.5276C35.0185 32.0777 35.4165 32.4757 35.4165 32.9666C35.4165 33.4575 35.0185 33.8555 34.5276 33.8555H19.4729C18.982 33.8555 18.584 33.4575 18.584 32.9666Z" fill="#F6F8FA" fill-opacity="0.8"/>
</g>
<defs>
<filter id="filter0_d_2304_12949" x="19.875" y="40.4375" width="27.25" height="27.25" filterUnits="userSpaceOnUse" color-interpolation-filters="sRGB">
<feFlood flood-opacity="0" result="BackgroundImageFix"/>
<feColorMatrix in="SourceAlpha" type="matrix" values="0 0 0 0 0 0 0 0 0 0 0 0 0 0 0 0 0 0 127 0" result="hardAlpha"/>
<feOffset dy="1.5625"/>
<feGaussianBlur stdDeviation="1.5625"/>
<feComposite in2="hardAlpha" operator="out"/>
<feColorMatrix type="matrix" values="0 0 0 0 0.0901961 0 0 0 0 0.105882 0 0 0 0 0.156863 0 0 0 0.05 0"/>
<feBlend mode="normal" in2="BackgroundImageFix" result="effect1_dropShadow_2304_12949"/>
<feBlend mode="normal" in="SourceGraphic" in2="effect1_dropShadow_2304_12949" result="shape"/>
</filter>
<filter id="filter1_d_2304_12949" x="52" y="6" width="32" height="32" filterUnits="userSpaceOnUse" color-interpolation-filters="sRGB">
<feFlood flood-opacity="0" result="BackgroundImageFix"/>
<feColorMatrix in="SourceAlpha" type="matrix" values="0 0 0 0 0 0 0 0 0 0 0 0 0 0 0 0 0 0 127 0" result="hardAlpha"/>
<feOffset dy="2"/>
<feGaussianBlur stdDeviation="2"/>
<feComposite in2="hardAlpha" operator="out"/>
<feColorMatrix type="matrix" values="0 0 0 0 0.0901961 0 0 0 0 0.105882 0 0 0 0 0.156863 0 0 0 0.05 0"/>
<feBlend mode="normal" in2="BackgroundImageFix" result="effect1_dropShadow_2304_12949"/>
<feBlend mode="normal" in="SourceGraphic" in2="effect1_dropShadow_2304_12949" result="shape"/>
</filter>
<filter id="filter2_d_2304_12949" x="27.8665" y="12.8665" width="46.267" height="46.267" filterUnits="userSpaceOnUse" color-interpolation-filters="sRGB">
<feFlood flood-opacity="0" result="BackgroundImageFix"/>
<feColorMatrix in="SourceAlpha" type="matrix" values="0 0 0 0 0 0 0 0 0 0 0 0 0 0 0 0 0 0 127 0" result="hardAlpha"/>
<feOffset/>
<feGaussianBlur stdDeviation="2.56675"/>
<feComposite in2="hardAlpha" operator="out"/>
<feColorMatrix type="matrix" values="0 0 0 0 0 0 0 0 0 0 0 0 0 0 0 0 0 0 0.1 0"/>
<feBlend mode="normal" in2="BackgroundImageFix" result="effect1_dropShadow_2304_12949"/>
<feBlend mode="normal" in="SourceGraphic" in2="effect1_dropShadow_2304_12949" result="shape"/>
</filter>
<filter id="filter3_d_2304_12949" x="34.4819" y="15.4819" width="33.0363" height="40.0363" filterUnits="userSpaceOnUse" color-interpolation-filters="sRGB">
<feFlood flood-opacity="0" result="BackgroundImageFix"/>
<feColorMatrix in="SourceAlpha" type="matrix" values="0 0 0 0 0 0 0 0 0 0 0 0 0 0 0 0 0 0 127 0" result="hardAlpha"/>
<feOffset/>
<feGaussianBlur stdDeviation="4.25907"/>
<feComposite in2="hardAlpha" operator="out"/>
<feColorMatrix type="matrix" values="0 0 0 0 1 0 0 0 0 1 0 0 0 0 1 0 0 0 0.3 0"/>
<feBlend mode="normal" in2="BackgroundImageFix" result="effect1_dropShadow_2304_12949"/>
<feBlend mode="normal" in="SourceGraphic" in2="effect1_dropShadow_2304_12949" result="shape"/>
</filter>
<filter id="filter4_d_2304_12949" x="55" y="36" width="40" height="40" filterUnits="userSpaceOnUse" color-interpolation-filters="sRGB">
<feFlood flood-opacity="0" result="BackgroundImageFix"/>
<feColorMatrix in="SourceAlpha" type="matrix" values="0 0 0 0 0 0 0 0 0 0 0 0 0 0 0 0 0 0 127 0" result="hardAlpha"/>
<feOffset dy="2"/>
<feGaussianBlur stdDeviation="2"/>
<feComposite in2="hardAlpha" operator="out"/>
<feColorMatrix type="matrix" values="0 0 0 0 0.0901961 0 0 0 0 0.105882 0 0 0 0 0.156863 0 0 0 0.05 0"/>
<feBlend mode="normal" in2="BackgroundImageFix" result="effect1_dropShadow_2304_12949"/>
<feBlend mode="normal" in="SourceGraphic" in2="effect1_dropShadow_2304_12949" result="shape"/>
</filter>
<filter id="filter5_d_2304_12949" x="7" y="2" width="40" height="40" filterUnits="userSpaceOnUse" color-interpolation-filters="sRGB">
<feFlood flood-opacity="0" result="BackgroundImageFix"/>
<feColorMatrix in="SourceAlpha" type="matrix" values="0 0 0 0 0 0 0 0 0 0 0 0 0 0 0 0 0 0 127 0" result="hardAlpha"/>
<feOffset dy="2"/>
<feGaussianBlur stdDeviation="2"/>
<feComposite in2="hardAlpha" operator="out"/>
<feColorMatrix type="matrix" values="0 0 0 0 0.0901961 0 0 0 0 0.105882 0 0 0 0 0.156863 0 0 0 0.05 0"/>
<feBlend mode="normal" in2="BackgroundImageFix" result="effect1_dropShadow_2304_12949"/>
<feBlend mode="normal" in="SourceGraphic" in2="effect1_dropShadow_2304_12949" result="shape"/>
</filter>
<linearGradient id="paint0_linear_2304_12949" x1="67.625" y1="11.75" x2="67.625" y2="28.25" gradientUnits="userSpaceOnUse">
<stop stop-color="white"/>
<stop offset="1" stop-color="white"/>
</linearGradient>
<linearGradient id="paint1_linear_2304_12949" x1="51" y1="24" x2="51" y2="47" gradientUnits="userSpaceOnUse">
<stop stop-color="#F6F8FA" stop-opacity="0.975"/>
<stop offset="1" stop-color="white" stop-opacity="0"/>
</linearGradient>
<linearGradient id="paint2_linear_2304_12949" x1="74.5" y1="45" x2="74.5" y2="83.5" gradientUnits="userSpaceOnUse">
<stop stop-color="white"/>
<stop offset="1" stop-color="#626A80"/>
</linearGradient>
<linearGradient id="paint3_linear_2304_12949" x1="14.2563" y1="13" x2="14.2563" y2="36" gradientUnits="userSpaceOnUse">
<stop stop-color="white"/>
<stop offset="1" stop-color="white"/>
</linearGradient>
<clipPath id="clip0_2304_12949">
<rect x="33" y="18" width="36" height="36" rx="18" fill="white"/>
</clipPath>
</defs>
</svg>
