<svg width="32" height="32" viewBox="0 0 32 32" fill="none" xmlns="http://www.w3.org/2000/svg">
<path d="M27.6765 9.72627H8.41971C6.23248 9.72627 4.03303 11.4473 3.50711 13.5704L2 19.6543V7.84882C2 6.57794 2.29141 5.62077 2.87422 4.97729C3.46451 4.32576 4.28269 4 5.32877 4H8.50063C8.88917 4 9.22541 4.02815 9.50935 4.08446C9.79328 4.14076 10.0548 4.23728 10.2939 4.37402C10.533 4.50272 10.7833 4.6837 11.0448 4.91696L11.6837 5.48403C11.9975 5.74946 12.2927 5.93848 12.5691 6.05109C12.8456 6.1637 13.1856 6.22001 13.5891 6.22001H24.0125C25.2155 6.22001 26.1271 6.55381 26.7472 7.22142C27.3035 7.81312 27.6133 8.64807 27.6765 9.72627Z" fill="#FBC63A"/>
<path d="M24.291 28.9115V28.1636C24.291 28.1636 20.6028 27.8682 17.2219 24.7955C15.1602 22.9218 14.9726 21.1782 15.14 20.1028C15.2241 19.5633 15.882 19.4898 16.2714 19.8725C16.9002 20.4904 17.9474 21.3646 19.5352 22.2545C22.487 23.9091 24.291 22.7273 24.291 22.7273V21.8544C24.291 21.0728 25.1475 20.5934 25.8138 21.002L30.7903 24.0537C31.3798 24.4152 31.4333 25.2516 30.8946 25.6852L25.918 29.6905C25.2637 30.2171 24.291 29.7514 24.291 28.9115Z" fill="#2845C1"/>
<path d="M29.3905 11.4922C30.5722 11.4926 31.3004 12.4231 31.0165 13.5703L29.2362 20.7539L26.8593 19.2969L26.6698 19.1895C24.9216 18.2769 22.8245 19.2966 22.3778 21.1279C21.9426 21.0997 21.317 20.9607 20.5126 20.5098C19.0873 19.7108 18.181 18.9458 17.6727 18.4463C17.0456 17.8302 16.1464 17.5188 15.2558 17.6699C14.3278 17.8277 13.465 18.504 13.2069 19.5752L13.163 19.7949C12.8923 21.5334 13.3166 23.9492 15.8759 26.2754C16.1607 26.5342 16.4485 26.7744 16.7352 27H5.67666C4.46642 27 3.63692 26.6536 3.18837 25.9609C2.7378 25.2764 2.67787 24.2662 3.00869 22.9307L5.32705 13.5703C5.61144 12.4228 6.80109 11.4922 7.9833 11.4922H29.3905Z" fill="#2845C1"/>
<path d="M15.9423 19.6709C16.0013 19.6902 16.0596 19.7164 16.1151 19.75C16.1255 19.7563 16.1352 19.7637 16.1454 19.7705C16.1077 19.7454 16.069 19.7233 16.0292 19.7051L15.9423 19.6709Z" fill="#2845C1"/>
</svg>
