<svg width="104" height="28" viewBox="0 0 104 28" fill="none" xmlns="http://www.w3.org/2000/svg">
<path d="M51.2627 10.1494C52.0981 10.1494 52.873 10.3318 53.5869 10.6963C54.2514 11.0285 54.7835 11.4426 55.1831 11.9389C55.2487 12.0203 55.2344 12.1384 55.1549 12.2063L53.7509 13.404C53.6624 13.4795 53.5287 13.4635 53.4553 13.3732C53.196 13.054 52.8979 12.7844 52.5615 12.5645C52.1666 12.3063 51.7335 12.1768 51.2627 12.1768C50.9288 12.1768 50.6404 12.238 50.3975 12.3594C50.1696 12.4809 49.9946 12.6404 49.873 12.8379C49.7667 13.0353 49.7139 13.256 49.7139 13.499C49.714 13.8633 49.8426 14.1672 50.1006 14.4102C50.374 14.638 50.7241 14.8358 51.1494 15.0029C51.5746 15.17 52.0224 15.3524 52.4932 15.5498C52.9792 15.7321 53.435 15.96 53.8604 16.2334C54.2857 16.4916 54.6275 16.8407 54.8857 17.2812C55.1591 17.7065 55.2958 18.2454 55.2959 18.8984C55.2959 19.673 55.1062 20.3341 54.7266 20.8809C54.3621 21.4124 53.876 21.8227 53.2686 22.1113C52.6609 22.3999 51.9918 22.5449 51.2627 22.5449C50.2756 22.5449 49.4175 22.3625 48.6885 21.998C48.0166 21.6481 47.4221 21.188 46.905 20.6187C46.8315 20.5377 46.8405 20.4126 46.9226 20.3403L48.326 19.1053C48.4117 19.0299 48.5428 19.0416 48.6173 19.1281C48.9476 19.5112 49.3131 19.8302 49.7139 20.084C50.1695 20.3725 50.6783 20.5166 51.2402 20.5166C51.7719 20.5166 52.1748 20.3799 52.4482 20.1064C52.7367 19.8179 52.8808 19.4686 52.8809 19.0586C52.8809 18.6788 52.7441 18.3743 52.4707 18.1465C52.2125 17.9187 51.8705 17.7217 51.4453 17.5547C51.02 17.3876 50.5642 17.2126 50.0781 17.0303C49.6074 16.8329 49.1595 16.5975 48.7344 16.3242C48.3091 16.0508 47.959 15.7016 47.6855 15.2764C47.4273 14.8359 47.2988 14.2734 47.2988 13.5898C47.2988 12.9519 47.4657 12.3748 47.7998 11.8584C48.134 11.3267 48.597 10.9083 49.1895 10.6045C49.797 10.3007 50.4882 10.1495 51.2627 10.1494Z" fill="#2845C1"/>
<path fill-rule="evenodd" clip-rule="evenodd" d="M70.3379 10.1494C71.1278 10.1494 71.8425 10.2779 72.4805 10.5361C73.1182 10.7943 73.6645 11.1519 74.1201 11.6074C74.591 12.0631 74.9484 12.6028 75.1914 13.2256C75.4344 13.8483 75.5556 14.524 75.5557 15.2529C75.5557 15.5264 75.5411 15.7925 75.5107 16.0508C75.4887 16.2378 75.4626 16.4009 75.4325 16.54C75.4134 16.6282 75.3339 16.6885 75.2437 16.6885H67.2462C67.1301 16.6885 67.038 16.7871 67.0502 16.9026C67.1142 17.5066 67.2602 18.0277 67.4902 18.4658C67.8092 19.0733 68.2569 19.5292 68.834 19.833C69.4112 20.1368 70.0648 20.2891 70.7939 20.2891C71.4775 20.2891 72.0928 20.1523 72.6396 19.8789C73.1325 19.6392 73.5375 19.329 73.855 18.949C73.9279 18.8619 74.0574 18.8441 74.1462 18.9149L75.6329 20.1001C75.7172 20.1673 75.7333 20.2896 75.6659 20.3739C75.1513 21.0166 74.4989 21.5352 73.71 21.9297C72.8594 22.3397 71.8947 22.5449 70.8164 22.5449C69.4797 22.5449 68.3402 22.2632 67.3984 21.7012C66.4568 21.124 65.7356 20.3645 65.2344 19.4229C64.7331 18.481 64.4824 17.4556 64.4824 16.3467C64.4824 15.481 64.611 14.6759 64.8691 13.9316C65.1426 13.1873 65.53 12.5337 66.0312 11.9717C66.5324 11.3945 67.148 10.9469 67.877 10.6279C68.606 10.309 69.4266 10.1494 70.3379 10.1494ZM70.2695 12.2227C69.6013 12.2227 69.0168 12.375 68.5156 12.6787C68.0296 12.9825 67.6567 13.4301 67.3984 14.0225C67.3148 14.2094 67.2461 14.4111 67.1903 14.6269C67.1585 14.7497 67.2536 14.8662 67.3804 14.8662H72.8864C72.9993 14.8662 73.0906 14.7726 73.0788 14.6603C73.0409 14.3 72.9331 13.9584 72.7539 13.6357C72.5413 13.2105 72.2294 12.8686 71.8193 12.6104C71.4092 12.3521 70.8923 12.2227 70.2695 12.2227Z" fill="#2845C1"/>
<path d="M99.4023 10.1494C100.238 10.1494 101.013 10.3317 101.727 10.6963C102.391 11.0285 102.923 11.4426 103.323 11.9389C103.388 12.0203 103.374 12.1384 103.295 12.2062L101.891 13.404C101.802 13.4795 101.668 13.4635 101.595 13.3731C101.336 13.054 101.038 12.7844 100.701 12.5645C100.306 12.3062 99.8732 12.1768 99.4023 12.1768C99.0682 12.1768 98.7792 12.2379 98.5361 12.3594C98.3085 12.4809 98.1342 12.6405 98.0127 12.8379C97.9064 13.0354 97.8525 13.256 97.8525 13.499C97.8526 13.8634 97.9821 14.1672 98.2402 14.4102C98.5136 14.638 98.8628 14.8358 99.2881 15.0029C99.7134 15.17 100.162 15.3523 100.633 15.5498C101.119 15.7321 101.575 15.96 102 16.2334C102.425 16.4916 102.767 16.8408 103.025 17.2812C103.299 17.7065 103.435 18.2455 103.436 18.8984C103.436 19.6729 103.246 20.3341 102.866 20.8809C102.502 21.4125 102.015 21.8227 101.407 22.1113C100.8 22.3999 100.131 22.5449 99.4023 22.5449C98.415 22.5449 97.5563 22.3626 96.8271 21.998C96.1554 21.6481 95.5616 21.1879 95.0446 20.6187C94.9711 20.5377 94.9801 20.4126 95.0622 20.3403L96.4647 19.1054C96.5504 19.0299 96.6815 19.0416 96.756 19.1281C97.0863 19.5112 97.4519 19.8302 97.8525 20.084C98.3083 20.3726 98.8178 20.5166 99.3799 20.5166C99.9113 20.5166 100.314 20.3797 100.587 20.1064C100.875 19.8179 101.02 19.4686 101.021 19.0586C101.021 18.6788 100.884 18.3743 100.61 18.1465C100.352 17.9187 100.01 17.7217 99.585 17.5547C99.1597 17.3876 98.7038 17.2125 98.2178 17.0303C97.7469 16.8328 97.2984 16.5976 96.873 16.3242C96.4479 16.0509 96.0986 15.7015 95.8252 15.2764C95.567 14.8359 95.4375 14.2734 95.4375 13.5898C95.4375 12.952 95.6045 12.3748 95.9385 11.8584C96.2727 11.3267 96.7367 10.9083 97.3291 10.6045C97.9366 10.3008 98.6278 10.1494 99.4023 10.1494Z" fill="#2845C1"/>
<path fill-rule="evenodd" clip-rule="evenodd" d="M26.7314 10.1494C27.7795 10.1494 28.6683 10.339 29.3975 10.7188C30.1266 11.0985 30.6735 11.6226 31.0381 12.291C31.4178 12.9594 31.6074 13.7114 31.6074 14.5469V21.8889C31.6074 21.9993 31.5179 22.0889 31.4074 22.0889H29.3016C29.1911 22.0889 29.1016 21.9993 29.1016 21.8889V21.1287C29.1016 21.0343 28.9792 20.9896 28.9135 21.0573C28.8115 21.1624 28.6995 21.2632 28.5771 21.3594C28.167 21.6936 27.6885 21.9525 27.1416 22.1348C26.5949 22.3322 26.0404 22.4307 25.4785 22.4307C24.3546 22.4307 23.4356 22.127 22.7217 21.5195C22.0077 20.9119 21.6504 20.0988 21.6504 19.0811C21.6504 18.2154 21.9769 17.4786 22.6299 16.8711C23.2831 16.2635 24.2256 15.8606 25.4561 15.6631L28.9351 15.0722C29.0312 15.0559 29.1016 14.9726 29.1016 14.875V14.5469C29.1016 13.8634 28.8735 13.3319 28.418 12.9521C27.9623 12.5572 27.3697 12.3594 26.6406 12.3594C26.0482 12.3594 25.5086 12.4888 25.0225 12.7471C24.6111 12.9727 24.2576 13.2735 23.9621 13.6498C23.8919 13.7393 23.7625 13.7597 23.6722 13.6906L22.1462 12.5231C22.0604 12.4575 22.0419 12.3352 22.1082 12.2498C22.5929 11.6249 23.2078 11.1298 23.9521 10.7646C24.7723 10.3546 25.6986 10.1494 26.7314 10.1494ZM26.0938 17.3262C25.4102 17.4325 24.9161 17.6303 24.6123 17.9189C24.3086 18.1923 24.1573 18.5417 24.1572 18.9668C24.1572 19.3921 24.3167 19.7422 24.6357 20.0156C24.9699 20.2888 25.4177 20.4257 25.9795 20.4258C26.6782 20.4258 27.2936 20.2662 27.8252 19.9473C28.3289 19.645 28.7431 19.2464 29.0695 18.7533C29.0907 18.7213 29.1016 18.6837 29.1016 18.6454V17.064C29.1016 16.9405 28.9907 16.8465 28.8689 16.8667L26.0938 17.3262Z" fill="#2845C1"/>
<path d="M90.2471 10.4045C90.2471 10.5149 90.3366 10.6045 90.4471 10.6045H93.7609C93.8714 10.6045 93.9609 10.694 93.9609 10.8045V12.6604C93.9609 12.7708 93.8714 12.8604 93.7609 12.8604H90.4471C90.3366 12.8604 90.2471 12.9499 90.2471 13.0604V18.0332C90.2471 18.5344 90.331 18.9292 90.498 19.2178C90.6651 19.5063 90.9004 19.7188 91.2041 19.8555C91.5079 19.977 91.8652 20.0381 92.2754 20.0381C92.6701 20.0381 93.004 20.0153 93.2773 19.9697C93.4332 19.9351 93.5767 19.898 93.7078 19.8584C93.8422 19.8178 93.9834 19.9155 93.9834 20.0558V21.8446C93.9834 21.9237 93.9371 21.9959 93.8634 22.0246C93.62 22.1194 93.3489 22.1866 93.0498 22.2256C92.7157 22.2863 92.3208 22.3164 91.8652 22.3164C90.9538 22.3164 90.1863 22.1569 89.5635 21.8379C88.9559 21.5037 88.4928 21.0251 88.1738 20.4023C87.8701 19.7644 87.7178 18.9748 87.7178 18.0332V13.0604C87.7178 12.9499 87.6282 12.8604 87.5178 12.8604H85.7762C85.6657 12.8604 85.5762 12.7708 85.5762 12.6604V10.8045C85.5762 10.694 85.6657 10.6045 85.7762 10.6045H87.5178C87.6282 10.6045 87.7178 10.5149 87.7178 10.4045V7.9334C87.7178 7.82294 87.8073 7.7334 87.9178 7.7334H90.0471C90.1575 7.7334 90.2471 7.82294 90.2471 7.9334V10.4045Z" fill="#2845C1"/>
<path d="M13.9199 8.46797C13.9199 8.57843 13.8304 8.66797 13.7199 8.66797H9.06133C8.95087 8.66797 8.86133 8.75751 8.86133 8.86797V21.8889C8.86133 21.9993 8.77179 22.0889 8.66133 22.0889H6.25859C6.14814 22.0889 6.05859 21.9993 6.05859 21.8889V8.86797C6.05859 8.75751 5.96905 8.66797 5.85859 8.66797H1.2C1.08954 8.66797 1 8.57843 1 8.46797V6.33867C1 6.22821 1.08954 6.13867 1.2 6.13867H13.7199C13.8304 6.13867 13.9199 6.22821 13.9199 6.33867V8.46797Z" fill="#2845C1"/>
<path d="M19.9893 10.377C20.1866 10.377 20.3691 10.3925 20.5361 10.4229C20.649 10.4434 20.7551 10.4671 20.8542 10.4943C20.9372 10.5172 20.9922 10.5942 20.9922 10.6803V12.7409C20.9922 12.871 20.8699 12.9665 20.7424 12.9406C20.6382 12.9194 20.5316 12.9005 20.4229 12.8838C20.2406 12.8534 20.02 12.8379 19.7617 12.8379C19.2911 12.8379 18.8659 12.9137 18.4863 13.0654C18.1219 13.2173 17.8026 13.4226 17.5293 13.6807C17.3273 13.8602 17.15 14.0566 16.9977 14.2694C16.8922 14.4168 16.8457 14.5967 16.8457 14.778V21.8889C16.8457 21.9993 16.7562 22.0889 16.6457 22.0889H14.5389C14.4284 22.0889 14.3389 21.9993 14.3389 21.8889V10.8045C14.3389 10.694 14.4284 10.6045 14.5389 10.6045H16.6457C16.7562 10.6045 16.8457 10.694 16.8457 10.8045V11.609C16.8457 11.7001 16.9585 11.7446 17.0224 11.6797C17.1496 11.5508 17.2803 11.4279 17.415 11.3115C17.7492 11.0229 18.1294 10.795 18.5547 10.6279C18.9798 10.461 19.4579 10.377 19.9893 10.377Z" fill="#2845C1"/>
<path d="M40.5498 10.1494C41.4005 10.1494 42.1607 10.339 42.8291 10.7188C43.5125 11.0985 44.0514 11.6611 44.4463 12.4053C44.8412 13.1496 45.0391 14.084 45.0391 15.208V21.8889C45.0391 21.9993 44.9495 22.0889 44.8391 22.0889H42.7098C42.5993 22.0889 42.5098 21.9993 42.5098 21.8889V15.2988C42.5098 14.4178 42.2819 13.7341 41.8262 13.248C41.3705 12.7468 40.7478 12.4962 39.958 12.4961C39.4567 12.4961 39.0155 12.5945 38.6357 12.792C38.2561 12.9743 37.9296 13.2104 37.6562 13.499C37.4601 13.7183 37.2855 13.9464 37.1329 14.1832C37.0387 14.3295 36.9951 14.5017 36.9951 14.6757V21.8889C36.9951 21.9993 36.9056 22.0889 36.7951 22.0889H34.6893C34.5788 22.0889 34.4893 21.9993 34.4893 21.8889V10.8045C34.4893 10.694 34.5788 10.6045 34.6893 10.6045H36.7951C36.9056 10.6045 36.9951 10.694 36.9951 10.8045V11.4025C36.9951 11.4926 37.1062 11.538 37.1718 11.4761C37.5489 11.1203 37.9837 10.8221 38.4766 10.582C39.0689 10.2934 39.76 10.1494 40.5498 10.1494Z" fill="#2845C1"/>
<path d="M62.5 5C63.0315 5 63.5103 5.06019 63.9355 5.18164C64.3027 5.28294 64.6387 5.40557 64.9428 5.54916C65.0423 5.59619 65.0803 5.71679 65.0298 5.81464L64.1416 7.53537C64.083 7.64904 63.9341 7.67879 63.8265 7.60954C63.6935 7.5239 63.5474 7.45113 63.3887 7.3916C63.1457 7.30058 62.8647 7.25488 62.5459 7.25488C61.9991 7.2549 61.5505 7.43722 61.2012 7.80176C60.867 8.15114 60.7002 8.63793 60.7002 9.26074V10.4045C60.7002 10.5149 60.7897 10.6045 60.9002 10.6045H64.2141C64.3245 10.6045 64.4141 10.694 64.4141 10.8045V12.6604C64.4141 12.7708 64.3245 12.8604 64.2141 12.8604H60.9002C60.7897 12.8604 60.7002 12.9499 60.7002 13.0604V21.8889C60.7002 21.9993 60.6107 22.0889 60.5002 22.0889H58.3709C58.2604 22.0889 58.1709 21.9993 58.1709 21.8889V13.0604C58.1709 12.9499 58.0814 12.8604 57.9709 12.8604H56.2293C56.1188 12.8604 56.0293 12.7708 56.0293 12.6604V10.8045C56.0293 10.694 56.1188 10.6045 56.2293 10.6045H57.9709C58.0814 10.6045 58.1709 10.5149 58.1709 10.4045V9.3291C58.1709 8.50895 58.346 7.77225 58.6953 7.11914C59.0446 6.46609 59.538 5.94908 60.1758 5.56934C60.8137 5.18963 61.5887 5.00006 62.5 5Z" fill="#2845C1"/>
<path d="M83.5557 10.377C83.7531 10.377 83.9355 10.3925 84.1025 10.4229C84.2154 10.4434 84.3215 10.4671 84.4207 10.4943C84.5037 10.5172 84.5586 10.5942 84.5586 10.6803V12.7409C84.5586 12.871 84.4363 12.9666 84.3088 12.9407C84.2042 12.9194 84.0973 12.9006 83.9883 12.8838C83.8061 12.8534 83.5861 12.8379 83.3281 12.8379C82.8573 12.8379 82.4315 12.9135 82.0518 13.0654C81.6872 13.2173 81.3681 13.4225 81.0947 13.6807C80.8927 13.8603 80.7154 14.0566 80.5631 14.2695C80.4576 14.4169 80.4111 14.5967 80.4111 14.778V21.8889C80.4111 21.9993 80.3216 22.0889 80.2111 22.0889H78.1053C77.9948 22.0889 77.9053 21.9993 77.9053 21.8889V10.8045C77.9053 10.694 77.9948 10.6045 78.1053 10.6045H80.2111C80.3216 10.6045 80.4111 10.694 80.4111 10.8045V11.6099C80.4111 11.701 80.5239 11.7454 80.5878 11.6805C80.7149 11.5513 80.8456 11.4281 80.9805 11.3115C81.3146 11.0229 81.6948 10.795 82.1201 10.6279C82.5455 10.4608 83.024 10.377 83.5557 10.377Z" fill="#2845C1"/>
</svg>
