<svg width="48" height="48" viewBox="0 0 48 48" fill="none" xmlns="http://www.w3.org/2000/svg">
<path d="M41.5148 14.5894H12.6296C9.34872 14.5894 6.04954 17.171 5.26066 20.3556L3 29.4815V11.7732C3 9.86691 3.43711 8.43115 4.31133 7.46593C5.19676 6.48864 6.42404 6 7.99316 6H12.7509C13.3338 6 13.8381 6.04223 14.264 6.12669C14.6899 6.21114 15.0822 6.35592 15.4409 6.56103C15.7995 6.75408 16.175 7.02555 16.5673 7.37544L17.5255 8.22604C17.9963 8.62419 18.439 8.90773 18.8537 9.07664C19.2684 9.24555 19.7784 9.33001 20.3836 9.33001H36.0187C37.8232 9.33001 39.1906 9.83072 40.1208 10.8321C40.9553 11.7197 41.4199 12.9721 41.5148 14.5894Z" fill="#FBC63A"/>
<path d="M36.4366 43.3672V42.2455C36.4366 42.2455 30.9043 41.8023 25.8329 37.1932C22.7404 34.3826 22.4589 31.7673 22.7101 30.1542C22.8362 29.3449 23.823 29.2348 24.4072 29.8088C25.3504 30.7356 26.9212 32.0469 29.3028 33.3818C33.7305 35.8636 36.4366 34.0909 36.4366 34.0909V32.7817C36.4366 31.6092 37.7212 30.89 38.7207 31.5029L46.1855 36.0805C47.0698 36.6227 47.15 37.8774 46.3419 38.5278L38.8771 44.5358C37.8956 45.3257 36.4366 44.6271 36.4366 43.3672Z" fill="#2845C1"/>
<path d="M44.0858 17.2383C45.8584 17.2388 46.9507 18.6347 46.5248 20.3555L43.8544 31.1309L40.289 28.9453L40.0048 28.7842C37.3825 27.4153 34.2367 28.9449 33.5668 31.6919C32.914 31.6495 31.9756 31.441 30.769 30.7646C28.631 29.5662 27.2716 28.4186 26.5092 27.6694C25.5685 26.7452 24.2196 26.2782 22.8837 26.5049C21.4918 26.7415 20.1976 27.756 19.8105 29.3628L19.7445 29.6924C19.3385 32.3001 19.975 35.9238 23.8139 39.4131C24.241 39.8013 24.6727 40.1616 25.1029 40.5H8.51505C6.6997 40.5 5.45545 39.9805 4.78263 38.9414C4.10677 37.9146 4.01688 36.3994 4.51309 34.396L7.99063 20.3555C8.41722 18.6342 10.2017 17.2383 11.975 17.2383H44.0858Z" fill="#2845C1"/>
<path d="M23.9135 29.5063C24.002 29.5352 24.0894 29.5745 24.1728 29.625C24.1883 29.6344 24.2029 29.6455 24.2182 29.6558C24.1617 29.6182 24.1036 29.585 24.0439 29.5576L23.9135 29.5063Z" fill="#2845C1"/>
</svg>
