<svg width="150" height="40" viewBox="0 0 150 40" fill="none" xmlns="http://www.w3.org/2000/svg">
<path d="M94.0146 17.0605C94.8501 17.0605 95.625 17.2429 96.3389 17.6074C97.0033 17.9397 97.5355 18.3538 97.9351 18.85C98.0006 18.9314 97.9864 19.0495 97.9068 19.1174L96.5029 20.3151C96.4144 20.3907 96.2806 20.3746 96.2073 20.2843C95.9479 19.9651 95.6499 19.6955 95.3135 19.4756C94.9186 19.2175 94.4854 19.0879 94.0146 19.0879C93.6807 19.0879 93.3923 19.1491 93.1494 19.2705C92.9216 19.392 92.7465 19.5515 92.625 19.749C92.5187 19.9465 92.4658 20.1671 92.4658 20.4102C92.4659 20.7745 92.5945 21.0784 92.8525 21.3213C93.126 21.5491 93.476 21.747 93.9014 21.9141C94.3265 22.0811 94.7744 22.2635 95.2451 22.4609C95.7312 22.6432 96.187 22.8711 96.6123 23.1445C97.0376 23.4028 97.3795 23.7519 97.6377 24.1924C97.9111 24.6176 98.0478 25.1566 98.0479 25.8096C98.0479 26.5842 97.8582 27.2452 97.4785 27.792C97.114 28.3236 96.628 28.7339 96.0205 29.0225C95.4129 29.3111 94.7438 29.4561 94.0146 29.4561C93.0276 29.456 92.1694 29.2736 91.4404 28.9092C90.7686 28.5593 90.1741 28.0991 89.657 27.5299C89.5834 27.4489 89.5924 27.3237 89.6746 27.2514L91.078 26.0164C91.1637 25.941 91.2947 25.9527 91.3693 26.0392C91.6995 26.4224 92.0651 26.7413 92.4658 26.9951C92.9214 27.2836 93.4303 27.4277 93.9922 27.4277C94.5239 27.4277 94.9268 27.291 95.2002 27.0176C95.4887 26.729 95.6328 26.3797 95.6328 25.9697C95.6328 25.59 95.4961 25.2855 95.2227 25.0576C94.9644 24.8299 94.6225 24.6329 94.1973 24.4658C93.7719 24.2987 93.3162 24.1237 92.8301 23.9414C92.3594 23.744 91.9115 23.5086 91.4863 23.2354C91.0611 22.962 90.7109 22.6127 90.4375 22.1875C90.1793 21.747 90.0508 21.1845 90.0508 20.501C90.0508 19.863 90.2176 19.286 90.5518 18.7695C90.8859 18.2379 91.349 17.8194 91.9414 17.5156C92.5489 17.2119 93.2401 17.0606 94.0146 17.0605Z" fill="#2845C1"/>
<path fill-rule="evenodd" clip-rule="evenodd" d="M113.09 17.0605C113.88 17.0605 114.594 17.189 115.232 17.4473C115.87 17.7055 116.416 18.063 116.872 18.5186C117.343 18.9743 117.7 19.5139 117.943 20.1367C118.186 20.7594 118.308 21.4351 118.308 22.1641C118.308 22.4375 118.293 22.7037 118.263 22.9619C118.241 23.1489 118.215 23.312 118.184 23.4512C118.165 23.5393 118.086 23.5996 117.996 23.5996H109.998C109.882 23.5996 109.79 23.6983 109.802 23.8137C109.866 24.4177 110.012 24.9388 110.242 25.377C110.561 25.9845 111.009 26.4403 111.586 26.7441C112.163 27.048 112.817 27.2002 113.546 27.2002C114.229 27.2002 114.845 27.0635 115.392 26.79C115.884 26.5503 116.289 26.2401 116.607 25.8602C116.68 25.773 116.809 25.7553 116.898 25.8261L118.385 27.0112C118.469 27.0785 118.485 27.2008 118.418 27.285C117.903 27.9277 117.251 28.4464 116.462 28.8408C115.611 29.2508 114.647 29.4561 113.568 29.4561C112.232 29.456 111.092 29.1743 110.15 28.6123C109.209 28.0351 108.488 27.2756 107.986 26.334C107.485 25.3922 107.234 24.3667 107.234 23.2578C107.234 22.3921 107.363 21.587 107.621 20.8428C107.895 20.0984 108.282 19.4449 108.783 18.8828C109.284 18.3057 109.9 17.8581 110.629 17.5391C111.358 17.2201 112.179 17.0606 113.09 17.0605ZM113.021 19.1338C112.353 19.1338 111.769 19.2861 111.268 19.5898C110.782 19.8936 110.409 20.3412 110.15 20.9336C110.067 21.1205 109.998 21.3222 109.942 21.5381C109.91 21.6608 110.006 21.7773 110.132 21.7773H115.638C115.751 21.7773 115.843 21.6838 115.831 21.5715C115.793 21.2111 115.685 20.8696 115.506 20.5469C115.293 20.1216 114.981 19.7797 114.571 19.5215C114.161 19.2632 113.644 19.1338 113.021 19.1338Z" fill="#2845C1"/>
<path d="M142.154 17.0605C142.99 17.0605 143.765 17.2428 144.479 17.6074C145.143 17.9397 145.675 18.3538 146.075 18.85C146.14 18.9314 146.126 19.0495 146.046 19.1174L144.643 20.3151C144.554 20.3907 144.42 20.3746 144.347 20.2843C144.088 19.9651 143.79 19.6956 143.453 19.4756C143.058 19.2173 142.625 19.0879 142.154 19.0879C141.82 19.0879 141.531 19.149 141.288 19.2705C141.06 19.392 140.886 19.5517 140.765 19.749C140.658 19.9465 140.604 20.1671 140.604 20.4102C140.605 20.7746 140.734 21.0783 140.992 21.3213C141.266 21.5491 141.615 21.747 142.04 21.9141C142.465 22.0812 142.914 22.2635 143.385 22.4609C143.871 22.6432 144.327 22.8711 144.752 23.1445C145.177 23.4028 145.519 23.7519 145.777 24.1924C146.051 24.6176 146.187 25.1567 146.188 25.8096C146.188 26.5841 145.998 27.2452 145.618 27.792C145.254 28.3237 144.767 28.7338 144.159 29.0225C143.552 29.311 142.883 29.4561 142.154 29.4561C141.167 29.456 140.308 29.2737 139.579 28.9092C138.907 28.5593 138.314 28.0991 137.797 27.5298C137.723 27.4488 137.732 27.3237 137.814 27.2514L139.217 26.0165C139.302 25.941 139.433 25.9528 139.508 26.0392C139.838 26.4223 140.204 26.7413 140.604 26.9951C141.06 27.2837 141.57 27.4277 142.132 27.4277C142.663 27.4277 143.065 27.2909 143.339 27.0176C143.627 26.729 143.772 26.3798 143.772 25.9697C143.772 25.59 143.636 25.2855 143.362 25.0576C143.104 24.8298 142.762 24.6329 142.337 24.4658C141.912 24.2987 141.456 24.1237 140.97 23.9414C140.499 23.7439 140.05 23.5088 139.625 23.2354C139.2 22.962 138.851 22.6127 138.577 22.1875C138.319 21.747 138.189 21.1845 138.189 20.501C138.189 19.8632 138.356 19.2859 138.69 18.7695C139.025 18.2379 139.489 17.8194 140.081 17.5156C140.689 17.2119 141.38 17.0606 142.154 17.0605Z" fill="#2845C1"/>
<path fill-rule="evenodd" clip-rule="evenodd" d="M69.4834 17.0605C70.5315 17.0605 71.4203 17.2502 72.1494 17.6299C72.8786 18.0096 73.4255 18.5338 73.79 19.2021C74.1698 19.8705 74.3594 20.6225 74.3594 21.458V28.8C74.3594 28.9105 74.2698 29 74.1594 29H72.0535C71.9431 29 71.8535 28.9105 71.8535 28.8V28.0398C71.8535 27.9454 71.7312 27.9007 71.6655 27.9684C71.5635 28.0736 71.4515 28.1744 71.3291 28.2705C70.919 28.6047 70.4404 28.8636 69.8936 29.0459C69.3468 29.2433 68.7924 29.3418 68.2305 29.3418C67.1066 29.3418 66.1875 29.0381 65.4736 28.4307C64.7597 27.823 64.4023 27.0099 64.4023 25.9922C64.4024 25.1265 64.7288 24.3898 65.3818 23.7822C66.035 23.1746 66.9776 22.7717 68.208 22.5742L71.687 21.9834C71.7832 21.967 71.8535 21.8837 71.8535 21.7862V21.458C71.8535 20.7746 71.6254 20.243 71.1699 19.8633C70.7142 19.4684 70.1217 19.2705 69.3926 19.2705C68.8001 19.2705 68.2605 19.4 67.7744 19.6582C67.3631 19.8838 67.0095 20.1846 66.7141 20.5609C66.6438 20.6504 66.5145 20.6709 66.4241 20.6017L64.8982 19.4342C64.8123 19.3686 64.7939 19.2463 64.8601 19.161C65.3448 18.536 65.9597 18.041 66.7041 17.6758C67.5243 17.2657 68.4506 17.0606 69.4834 17.0605ZM68.8457 24.2373C68.1621 24.3436 67.6681 24.5415 67.3643 24.8301C67.0606 25.1034 66.9093 25.4528 66.9092 25.8779C66.9092 26.3033 67.0687 26.6533 67.3877 26.9268C67.7218 27.2 68.1697 27.3369 68.7314 27.3369C69.4301 27.3369 70.0455 27.1773 70.5771 26.8584C71.0809 26.5562 71.4951 26.1576 71.8215 25.6644C71.8426 25.6324 71.8535 25.5949 71.8535 25.5566V23.9751C71.8535 23.8516 71.7427 23.7576 71.6208 23.7778L68.8457 24.2373Z" fill="#2845C1"/>
<path d="M132.999 17.3156C132.999 17.4261 133.089 17.5156 133.199 17.5156H136.513C136.623 17.5156 136.713 17.6052 136.713 17.7156V19.5715C136.713 19.6819 136.623 19.7715 136.513 19.7715H133.199C133.089 19.7715 132.999 19.861 132.999 19.9715V24.9443C132.999 25.4455 133.083 25.8403 133.25 26.1289C133.417 26.4175 133.652 26.6299 133.956 26.7666C134.26 26.8881 134.617 26.9492 135.027 26.9492C135.422 26.9492 135.756 26.9264 136.029 26.8809C136.185 26.8462 136.329 26.8091 136.46 26.7695C136.594 26.7289 136.735 26.8266 136.735 26.967V28.7558C136.735 28.8348 136.689 28.907 136.615 28.9357C136.372 29.0305 136.101 29.0977 135.802 29.1367C135.468 29.1975 135.073 29.2275 134.617 29.2275C133.706 29.2275 132.938 29.068 132.315 28.749C131.708 28.4148 131.245 27.9363 130.926 27.3135C130.622 26.6756 130.47 25.886 130.47 24.9443V19.9715C130.47 19.861 130.38 19.7715 130.27 19.7715H128.528C128.418 19.7715 128.328 19.6819 128.328 19.5715V17.7156C128.328 17.6052 128.418 17.5156 128.528 17.5156H130.27C130.38 17.5156 130.47 17.4261 130.47 17.3156V14.8445C130.47 14.7341 130.559 14.6445 130.67 14.6445H132.799C132.909 14.6445 132.999 14.7341 132.999 14.8445V17.3156Z" fill="#2845C1"/>
<path d="M56.6719 15.3791C56.6719 15.4896 56.5823 15.5791 56.4719 15.5791H51.8133C51.7028 15.5791 51.6133 15.6686 51.6133 15.7791V28.8C51.6133 28.9105 51.5237 29 51.4133 29H49.0105C48.9001 29 48.8105 28.9105 48.8105 28.8V15.7791C48.8105 15.6686 48.721 15.5791 48.6105 15.5791H43.952C43.8415 15.5791 43.752 15.4896 43.752 15.3791V13.2498C43.752 13.1393 43.8415 13.0498 43.952 13.0498H56.4719C56.5823 13.0498 56.6719 13.1393 56.6719 13.2498V15.3791Z" fill="#2845C1"/>
<path d="M62.7412 17.2881C62.9385 17.2881 63.1211 17.3037 63.2881 17.334C63.4009 17.3545 63.5071 17.3782 63.6062 17.4055C63.6892 17.4283 63.7441 17.5053 63.7441 17.5914V19.6521C63.7441 19.7822 63.6218 19.8777 63.4943 19.8517C63.3901 19.8305 63.2836 19.8117 63.1748 19.7949C62.9925 19.7645 62.7719 19.749 62.5137 19.749C62.043 19.749 61.6179 19.8248 61.2383 19.9766C60.8739 20.1284 60.5546 20.3337 60.2812 20.5918C60.0792 20.7714 59.902 20.9677 59.7496 21.1806C59.6441 21.328 59.5977 21.5079 59.5977 21.6892V28.8C59.5977 28.9105 59.5081 29 59.3977 29H57.2908C57.1804 29 57.0908 28.9105 57.0908 28.8V17.7156C57.0908 17.6052 57.1804 17.5156 57.2908 17.5156H59.3977C59.5081 17.5156 59.5977 17.6052 59.5977 17.7156V18.5201C59.5977 18.6112 59.7104 18.6557 59.7744 18.5908C59.9015 18.4619 60.0322 18.339 60.167 18.2227C60.5012 17.934 60.8813 17.7062 61.3066 17.5391C61.7318 17.3721 62.2099 17.2881 62.7412 17.2881Z" fill="#2845C1"/>
<path d="M83.3018 17.0605C84.1524 17.0605 84.9127 17.2501 85.5811 17.6299C86.2645 18.0096 86.8033 18.5722 87.1982 19.3164C87.5931 20.0607 87.791 20.9951 87.791 22.1191V28.8C87.791 28.9105 87.7015 29 87.591 29H85.4617C85.3513 29 85.2617 28.9105 85.2617 28.8V22.21C85.2617 21.3289 85.0338 20.6453 84.5781 20.1592C84.1225 19.658 83.4997 19.4073 82.71 19.4072C82.2087 19.4072 81.7675 19.5056 81.3877 19.7031C81.008 19.8854 80.6816 20.1216 80.4082 20.4102C80.212 20.6295 80.0374 20.8575 79.8849 21.0943C79.7907 21.2406 79.7471 21.4128 79.7471 21.5869V28.8C79.7471 28.9105 79.6575 29 79.5471 29H77.4412C77.3308 29 77.2412 28.9105 77.2412 28.8V17.7156C77.2412 17.6052 77.3308 17.5156 77.4412 17.5156H79.5471C79.6575 17.5156 79.7471 17.6052 79.7471 17.7156V18.3136C79.7471 18.4038 79.8582 18.4491 79.9237 18.3872C80.3009 18.0314 80.7357 17.7333 81.2285 17.4932C81.8209 17.2046 82.512 17.0606 83.3018 17.0605Z" fill="#2845C1"/>
<path d="M105.252 11.9111C105.783 11.9111 106.262 11.9713 106.688 12.0928C107.055 12.1941 107.391 12.3167 107.695 12.4603C107.794 12.5073 107.832 12.6279 107.782 12.7258L106.894 14.4465C106.835 14.5602 106.686 14.5899 106.578 14.5207C106.445 14.435 106.299 14.3623 106.141 14.3027C105.898 14.2117 105.617 14.166 105.298 14.166C104.751 14.166 104.302 14.3484 103.953 14.7129C103.619 15.0623 103.452 15.5491 103.452 16.1719V17.3156C103.452 17.4261 103.542 17.5156 103.652 17.5156H106.966C107.076 17.5156 107.166 17.6052 107.166 17.7156V19.5715C107.166 19.6819 107.076 19.7715 106.966 19.7715H103.652C103.542 19.7715 103.452 19.861 103.452 19.9715V28.8C103.452 28.9105 103.363 29 103.252 29H101.123C101.012 29 100.923 28.9105 100.923 28.8V19.9715C100.923 19.861 100.833 19.7715 100.723 19.7715H98.9813C98.8708 19.7715 98.7812 19.6819 98.7812 19.5715V17.7156C98.7812 17.6052 98.8708 17.5156 98.9812 17.5156H100.723C100.833 17.5156 100.923 17.4261 100.923 17.3156V16.2402C100.923 15.4201 101.098 14.6834 101.447 14.0303C101.797 13.3772 102.29 12.8602 102.928 12.4805C103.566 12.1008 104.341 11.9112 105.252 11.9111Z" fill="#2845C1"/>
<path d="M126.308 17.2881C126.505 17.2881 126.687 17.3036 126.854 17.334C126.967 17.3545 127.073 17.3782 127.173 17.4055C127.256 17.4283 127.311 17.5053 127.311 17.5914V19.652C127.311 19.7822 127.188 19.8777 127.061 19.8518C126.956 19.8306 126.849 19.8117 126.74 19.7949C126.558 19.7646 126.338 19.749 126.08 19.749C125.609 19.749 125.183 19.8247 124.804 19.9766C124.439 20.1284 124.12 20.3336 123.847 20.5918C123.645 20.7714 123.467 20.9677 123.315 21.1806C123.21 21.328 123.163 21.5079 123.163 21.6891V28.8C123.163 28.9105 123.074 29 122.963 29H120.857C120.747 29 120.657 28.9105 120.657 28.8V17.7156C120.657 17.6052 120.747 17.5156 120.857 17.5156H122.963C123.074 17.5156 123.163 17.6052 123.163 17.7156V18.521C123.163 18.6121 123.276 18.6566 123.34 18.5916C123.467 18.4624 123.598 18.3392 123.732 18.2227C124.067 17.9341 124.447 17.7062 124.872 17.5391C125.297 17.372 125.776 17.2881 126.308 17.2881Z" fill="#2845C1"/>
<path d="M31.6765 13.7263H12.4197C10.2325 13.7263 8.03303 15.4473 7.50711 17.5704L6 23.6543V11.8488C6 10.5779 6.29141 9.62077 6.87422 8.97729C7.46451 8.32576 8.28269 8 9.32877 8H12.5006C12.8892 8 13.2254 8.02815 13.5093 8.08446C13.7933 8.14076 14.0548 8.23728 14.2939 8.37402C14.533 8.50272 14.7833 8.6837 15.0448 8.91696L15.6837 9.48403C15.9975 9.74946 16.2927 9.93848 16.5691 10.0511C16.8456 10.1637 17.1856 10.22 17.5891 10.22H28.0125C29.2155 10.22 30.1271 10.5538 30.7472 11.2214C31.3035 11.8131 31.6133 12.6481 31.6765 13.7263Z" fill="#FBC63A"/>
<path d="M28.291 32.9115V32.1636C28.291 32.1636 24.6028 31.8682 21.2218 28.7955C19.1602 26.9218 18.9725 25.1782 19.14 24.1028C19.224 23.5633 19.8819 23.4898 20.2714 23.8725C20.9002 24.4904 21.9474 25.3646 23.5351 26.2545C26.4869 27.9091 28.291 26.7273 28.291 26.7273V25.8544C28.291 25.0728 29.1474 24.5934 29.8137 25.002L34.7903 28.0537C35.3798 28.4152 35.4332 29.2516 34.8945 29.6852L29.918 33.6905C29.2637 34.2171 28.291 33.7514 28.291 32.9115Z" fill="#2845C1"/>
<path d="M33.3905 15.4922C34.5722 15.4926 35.3004 16.4231 35.0165 17.5703L33.2362 24.7539L30.8592 23.2969L30.6698 23.1895C28.9216 22.2769 26.8244 23.2966 26.3778 25.1279C25.9426 25.0997 25.317 24.9607 24.5126 24.5098C23.0872 23.7108 22.181 22.9458 21.6727 22.4463C21.0456 21.8302 20.1463 21.5188 19.2557 21.6699C18.3278 21.8277 17.465 22.504 17.2069 23.5752L17.1629 23.7949C16.8922 25.5334 17.3166 27.9492 19.8758 30.2754C20.1606 30.5342 20.4484 30.7744 20.7352 31H9.67662C8.46638 31 7.63689 30.6536 7.18834 29.9609C6.73776 29.2764 6.67784 28.2662 7.00865 26.9307L9.32701 17.5703C9.6114 16.4228 10.8011 15.4922 11.9833 15.4922H33.3905Z" fill="#2845C1"/>
<path d="M19.9422 23.6709C20.0013 23.6902 20.0595 23.7164 20.1151 23.75C20.1255 23.7563 20.1352 23.7637 20.1454 23.7705C20.1077 23.7454 20.069 23.7233 20.0292 23.7051L19.9422 23.6709Z" fill="#2845C1"/>
</svg>
