<svg width="238" height="40" viewBox="0 0 238 40" fill="none" xmlns="http://www.w3.org/2000/svg">
<path d="M31.6765 13.7263H12.4197C10.2325 13.7263 8.03303 15.4473 7.50711 17.5704L6 23.6543V11.8488C6 10.5779 6.29141 9.62077 6.87422 8.97729C7.46451 8.32576 8.28269 8 9.32877 8H12.5006C12.8892 8 13.2254 8.02815 13.5093 8.08446C13.7933 8.14076 14.0548 8.23728 14.2939 8.37402C14.533 8.50272 14.7833 8.6837 15.0448 8.91696L15.6837 9.48403C15.9975 9.74946 16.2927 9.93848 16.5691 10.0511C16.8456 10.1637 17.1856 10.22 17.5891 10.22H28.0125C29.2155 10.22 30.1271 10.5538 30.7472 11.2214C31.3035 11.8131 31.6133 12.6481 31.6765 13.7263Z" fill="#FBC63A"/>
<path d="M28.291 32.9115V32.1636C28.291 32.1636 24.6028 31.8682 21.2218 28.7955C19.1602 26.9218 18.9725 25.1782 19.14 24.1028C19.224 23.5633 19.8819 23.4898 20.2714 23.8725C20.9002 24.4904 21.9474 25.3646 23.5351 26.2545C26.4869 27.9091 28.291 26.7273 28.291 26.7273V25.8544C28.291 25.0728 29.1474 24.5934 29.8137 25.002L34.7903 28.0537C35.3798 28.4152 35.4332 29.2516 34.8945 29.6852L29.918 33.6905C29.2637 34.2171 28.291 33.7514 28.291 32.9115Z" fill="#2845C1"/>
<path d="M33.3905 15.4922C34.5722 15.4926 35.3004 16.4231 35.0165 17.5703L33.2362 24.7539L30.8592 23.2969L30.6698 23.1895C28.9216 22.2769 26.8244 23.2966 26.3778 25.1279C25.9426 25.0997 25.317 24.9607 24.5126 24.5098C23.0872 23.7108 22.181 22.9458 21.6727 22.4463C21.0456 21.8302 20.1463 21.5188 19.2557 21.6699C18.3278 21.8277 17.465 22.504 17.2069 23.5752L17.1629 23.7949C16.8922 25.5334 17.3166 27.9492 19.8758 30.2754C20.1606 30.5342 20.4484 30.7744 20.7352 31H9.67662C8.46638 31 7.63689 30.6536 7.18834 29.9609C6.73776 29.2764 6.67784 28.2662 7.00865 26.9307L9.32701 17.5703C9.6114 16.4228 10.8011 15.4922 11.9833 15.4922H33.3905Z" fill="#2845C1"/>
<path d="M19.9422 23.6709C20.0013 23.6902 20.0595 23.7164 20.1151 23.75C20.1255 23.7563 20.1352 23.7637 20.1454 23.7705C20.1077 23.7454 20.069 23.7233 20.0292 23.7051L19.9422 23.6709Z" fill="#2845C1"/>
<path d="M67.6143 16.0605C68.6624 16.0605 69.605 16.2729 70.4404 16.6982C71.2138 17.0779 71.8502 17.5883 72.3502 18.2284C72.4171 18.3141 72.3985 18.4372 72.3118 18.5029L70.3753 19.97C70.2857 20.0379 70.1583 20.0182 70.0867 19.9316C69.8325 19.6244 69.5176 19.3667 69.1416 19.1592C68.7012 18.901 68.1768 18.7715 67.5693 18.7715C67.0984 18.7715 66.6572 18.8626 66.2471 19.0449C65.8522 19.212 65.5103 19.4555 65.2217 19.7744C64.9332 20.0782 64.7051 20.4429 64.5381 20.8682C64.3862 21.2934 64.3106 21.7567 64.3105 22.2578C64.3105 22.926 64.4474 23.5261 64.7207 24.0576C65.0093 24.5892 65.4041 25.0077 65.9053 25.3115C66.4066 25.6001 66.9845 25.7441 67.6377 25.7441C68.1996 25.7441 68.7012 25.6229 69.1416 25.3799C69.5177 25.1594 69.8327 24.8943 70.0869 24.5852C70.1583 24.4984 70.2857 24.4787 70.3752 24.5466L72.3102 26.0125C72.3975 26.0786 72.4157 26.203 72.3474 26.2886C71.8479 26.9149 71.2122 27.4244 70.4404 27.8174C69.605 28.2427 68.6624 28.4561 67.6143 28.4561C66.2928 28.456 65.1615 28.1743 64.2197 27.6123C63.2779 27.0351 62.5487 26.2758 62.0322 25.334C61.5309 24.3922 61.2803 23.3667 61.2803 22.2578C61.2803 21.4226 61.4244 20.6328 61.7129 19.8887C62.0014 19.1445 62.4191 18.4834 62.9658 17.9062C63.5126 17.3291 64.1737 16.8805 64.9482 16.5615C65.7229 16.2274 66.6118 16.0606 67.6143 16.0605Z" fill="#2845C1"/>
<path fill-rule="evenodd" clip-rule="evenodd" d="M98.1084 16.0605C98.9132 16.0606 99.6346 16.1891 100.272 16.4473C100.925 16.7054 101.48 17.0703 101.936 17.541C102.406 17.9967 102.764 18.5438 103.007 19.1816C103.265 19.8044 103.395 20.4882 103.395 21.2324C103.395 21.5361 103.372 21.8326 103.326 22.1211C103.304 22.335 103.277 22.5201 103.246 22.6757C103.228 22.7658 103.148 22.8281 103.056 22.8281H95.3905C95.2713 22.8281 95.1782 22.9319 95.1959 23.0498C95.2649 23.5086 95.3838 23.9055 95.5557 24.2402C95.8443 24.8023 96.2472 25.2125 96.7637 25.4707C97.2801 25.7289 97.88 25.8584 98.5635 25.8584C99.2014 25.8584 99.7785 25.7362 100.295 25.4932C100.742 25.2828 101.109 25.0044 101.397 24.6575C101.47 24.5696 101.6 24.5506 101.69 24.6215L103.447 26.0113C103.532 26.0784 103.549 26.2011 103.481 26.2855C102.965 26.928 102.306 27.4465 101.503 27.8408C100.652 28.2509 99.6796 28.4561 98.5859 28.4561C97.2191 28.456 96.0574 28.1742 95.1006 27.6123C94.1588 27.0351 93.4368 26.2758 92.9355 25.334C92.4495 24.3922 92.2061 23.3667 92.2061 22.2578C92.2061 21.4072 92.3355 20.6095 92.5938 19.8652C92.8672 19.1058 93.2546 18.4448 93.7559 17.8828C94.2571 17.3057 94.8725 16.858 95.6016 16.5391C96.3307 16.2201 97.1666 16.0605 98.1084 16.0605ZM98.04 18.4297C97.4172 18.4297 96.8849 18.5664 96.4443 18.8398C96.0191 19.1132 95.6927 19.5236 95.4648 20.0703C95.4053 20.2093 95.354 20.3567 95.3103 20.5124C95.2757 20.6355 95.3711 20.7539 95.4989 20.7539H100.359C100.472 20.7539 100.564 20.6597 100.55 20.5472C100.514 20.2464 100.421 19.9585 100.272 19.6836C100.09 19.3191 99.8093 19.0228 99.4297 18.7949C99.0652 18.5519 98.6019 18.4298 98.04 18.4297Z" fill="#2845C1"/>
<path d="M117.667 16.0605C118.533 16.0606 119.338 16.2502 120.082 16.6299C120.775 16.9626 121.323 17.3777 121.725 17.8749C121.79 17.9553 121.777 18.0718 121.699 18.1402L120.081 19.5666C119.995 19.6424 119.863 19.6303 119.788 19.5437C119.532 19.2481 119.242 18.9905 118.92 18.7715C118.54 18.5133 118.13 18.3848 117.689 18.3848C117.386 18.3848 117.135 18.4376 116.938 18.5439C116.74 18.6351 116.588 18.7645 116.481 18.9316C116.39 19.0986 116.345 19.2812 116.345 19.4785C116.345 19.8125 116.474 20.0862 116.732 20.2988C117.006 20.4962 117.348 20.6786 117.758 20.8457C118.183 20.9976 118.624 21.1644 119.079 21.3467C119.55 21.529 119.991 21.7568 120.401 22.0303C120.826 22.2884 121.168 22.6379 121.426 23.0781C121.699 23.5034 121.836 24.0504 121.836 24.7188C121.821 25.5238 121.616 26.2075 121.221 26.7695C120.841 27.3162 120.34 27.7339 119.718 28.0225C119.095 28.3111 118.419 28.456 117.689 28.4561C116.657 28.4561 115.768 28.2655 115.023 27.8857C114.336 27.5347 113.732 27.0672 113.213 26.4827C113.141 26.4023 113.15 26.2799 113.23 26.2078L114.843 24.7477C114.928 24.6702 115.062 24.6814 115.137 24.7694C115.45 25.1368 115.792 25.4464 116.163 25.6982C116.604 25.9868 117.097 26.1318 117.644 26.1318C118.114 26.1318 118.465 26.0179 118.692 25.79C118.935 25.5471 119.057 25.2506 119.057 24.9014C119.057 24.5672 118.92 24.301 118.646 24.1035C118.388 23.8909 118.046 23.7085 117.621 23.5566C117.211 23.3896 116.771 23.2154 116.3 23.0332C115.844 22.8509 115.403 22.623 114.978 22.3496C114.567 22.0762 114.226 21.7188 113.952 21.2783C113.694 20.8379 113.565 20.2834 113.565 19.6152C113.565 18.9317 113.74 18.3236 114.089 17.792C114.453 17.2603 114.94 16.8429 115.548 16.5391C116.171 16.2201 116.877 16.0605 117.667 16.0605Z" fill="#2845C1"/>
<path d="M54.6436 14.5383C54.6436 14.6487 54.554 14.7383 54.4436 14.7383H48.782C48.6716 14.7383 48.582 14.8278 48.582 14.9383V18.3439C48.582 18.4544 48.6716 18.5439 48.782 18.5439H53.5324C53.6429 18.5439 53.7324 18.6335 53.7324 18.7439V21.01C53.7324 21.1204 53.6429 21.21 53.5324 21.21H48.782C48.6716 21.21 48.582 21.2995 48.582 21.41V27.8C48.582 27.9105 48.4925 28 48.382 28H45.5467C45.4362 28 45.3467 27.9105 45.3467 27.8V12.2498C45.3467 12.1393 45.4362 12.0498 45.5467 12.0498H54.4436C54.554 12.0498 54.6436 12.1393 54.6436 12.2498V14.5383Z" fill="#2845C1"/>
<path d="M59.3135 27.8C59.3135 27.9105 59.2239 28 59.1135 28H56.6199C56.5095 28 56.4199 27.9105 56.4199 27.8V16.7156C56.4199 16.6052 56.5095 16.5156 56.6199 16.5156H59.1135C59.2239 16.5156 59.3135 16.6052 59.3135 16.7156V27.8Z" fill="#2845C1"/>
<path d="M76.8604 17.1722C76.8604 17.2612 76.969 17.307 77.0352 17.2475C77.3548 16.9599 77.7144 16.7155 78.1143 16.5156C78.7066 16.212 79.4206 16.0605 80.2559 16.0605C81.0913 16.0606 81.8434 16.2502 82.5117 16.6299C83.18 17.0096 83.7115 17.5794 84.1064 18.3389C84.5014 19.0832 84.6992 20.0249 84.6992 21.1641V27.8C84.6992 27.9105 84.6097 28 84.4992 28H82.0047C81.8942 28 81.8047 27.9105 81.8047 27.8V21.2783C81.8047 20.5036 81.5996 19.8956 81.1895 19.4551C80.7945 18.9996 80.2401 18.7715 79.5264 18.7715C79.0404 18.7715 78.6227 18.8627 78.2734 19.0449C77.9394 19.2271 77.6585 19.4552 77.4307 19.7285C77.2704 19.9101 77.1287 20.092 77.0058 20.2738C76.906 20.4215 76.8604 20.5979 76.8604 20.7762V27.8C76.8604 27.9105 76.7708 28 76.6604 28H74.1668C74.0563 28 73.9668 27.9105 73.9668 27.8V11.1111C73.9668 11.0007 74.0563 10.9111 74.1668 10.9111H76.6604C76.7708 10.9111 76.8604 11.0007 76.8604 11.1111V17.1722Z" fill="#2845C1"/>
<path d="M90.2402 27.8C90.2402 27.9105 90.1507 28 90.0402 28H87.5467C87.4362 28 87.3467 27.9105 87.3467 27.8V16.7156C87.3467 16.6052 87.4362 16.5156 87.5467 16.5156H90.0402C90.1507 16.5156 90.2402 16.6052 90.2402 16.7156V27.8Z" fill="#2845C1"/>
<path d="M111.463 16.2881C111.66 16.2881 111.843 16.3036 112.01 16.334C112.122 16.3545 112.228 16.3782 112.327 16.4054C112.41 16.4283 112.465 16.5053 112.465 16.5914V19.0398C112.465 19.1699 112.343 19.2654 112.215 19.2399C112.106 19.2181 111.992 19.1986 111.873 19.1816C111.676 19.1513 111.448 19.1367 111.189 19.1367C110.719 19.1367 110.301 19.2124 109.937 19.3643C109.587 19.501 109.283 19.6833 109.024 19.9111C108.838 20.0754 108.684 20.2479 108.561 20.4282C108.469 20.5629 108.433 20.7259 108.433 20.889V27.8C108.433 27.9105 108.343 28 108.233 28H105.738C105.628 28 105.538 27.9105 105.538 27.8V16.7156C105.538 16.6052 105.628 16.5156 105.738 16.5156H108.233C108.343 16.5156 108.433 16.6052 108.433 16.7156V17.3994C108.433 17.4897 108.543 17.5343 108.608 17.4709C108.669 17.4097 108.732 17.3496 108.797 17.291C109.146 16.9872 109.541 16.7438 109.981 16.5615C110.422 16.3792 110.916 16.2881 111.463 16.2881Z" fill="#2845C1"/>
<path d="M57.8779 10.751C58.2273 10.751 58.5391 10.8349 58.8125 11.002C59.1011 11.169 59.329 11.3969 59.4961 11.6855C59.6632 11.959 59.7471 12.2708 59.7471 12.6201C59.747 12.9541 59.6631 13.2652 59.4961 13.5537C59.329 13.8423 59.1011 14.0775 58.8125 14.2598C58.5391 14.4269 58.2273 14.5107 57.8779 14.5107C57.5439 14.5107 57.2328 14.4268 56.9443 14.2598C56.6558 14.0775 56.4205 13.8423 56.2383 13.5537C56.0713 13.2652 55.9874 12.9541 55.9873 12.6201C55.9873 12.1036 56.1769 11.6624 56.5566 11.2979C56.9363 10.9334 57.3768 10.7511 57.8779 10.751Z" fill="#2845C1"/>
<path d="M88.8047 10.751C89.1541 10.751 89.4658 10.8349 89.7393 11.002C90.0277 11.169 90.2558 11.397 90.4229 11.6855C90.5898 11.9589 90.6729 12.2708 90.6729 12.6201C90.6728 12.954 90.5898 13.2653 90.4229 13.5537C90.2558 13.8422 90.0277 14.0775 89.7393 14.2598C89.4658 14.4269 89.1541 14.5107 88.8047 14.5107C88.4705 14.5107 88.1587 14.4269 87.8701 14.2598C87.5817 14.0775 87.3463 13.8422 87.1641 13.5537C86.9971 13.2653 86.9132 12.9541 86.9131 12.6201C86.9131 12.1036 87.1036 11.6624 87.4834 11.2979C87.8631 10.9335 88.3035 10.751 88.8047 10.751Z" fill="#2845C1"/>
<path d="M181.263 16.1494C182.098 16.1494 182.873 16.3318 183.587 16.6963C184.251 17.0285 184.784 17.4426 185.183 17.9389C185.249 18.0203 185.234 18.1384 185.155 18.2063L183.751 19.404C183.662 19.4795 183.529 19.4635 183.455 19.3732C183.196 19.054 182.898 18.7844 182.562 18.5645C182.167 18.3063 181.733 18.1768 181.263 18.1768C180.929 18.1768 180.64 18.238 180.397 18.3594C180.17 18.4809 179.995 18.6404 179.873 18.8379C179.767 19.0353 179.714 19.256 179.714 19.499C179.714 19.8633 179.843 20.1672 180.101 20.4102C180.374 20.638 180.724 20.8358 181.149 21.0029C181.575 21.17 182.022 21.3524 182.493 21.5498C182.979 21.7321 183.435 21.96 183.86 22.2334C184.286 22.4916 184.628 22.8407 184.886 23.2812C185.159 23.7065 185.296 24.2454 185.296 24.8984C185.296 25.673 185.106 26.3341 184.727 26.8809C184.362 27.4124 183.876 27.8227 183.269 28.1113C182.661 28.3999 181.992 28.5449 181.263 28.5449C180.276 28.5449 179.417 28.3625 178.688 27.998C178.017 27.6481 177.422 27.188 176.905 26.6187C176.831 26.5377 176.84 26.4126 176.923 26.3403L178.326 25.1053C178.412 25.0299 178.543 25.0416 178.617 25.1281C178.948 25.5112 179.313 25.8302 179.714 26.084C180.169 26.3725 180.678 26.5166 181.24 26.5166C181.772 26.5166 182.175 26.3799 182.448 26.1064C182.737 25.8179 182.881 25.4686 182.881 25.0586C182.881 24.6788 182.744 24.3743 182.471 24.1465C182.212 23.9187 181.871 23.7217 181.445 23.5547C181.02 23.3876 180.564 23.2126 180.078 23.0303C179.607 22.8329 179.16 22.5975 178.734 22.3242C178.309 22.0508 177.959 21.7016 177.686 21.2764C177.427 20.8359 177.299 20.2734 177.299 19.5898C177.299 18.9519 177.466 18.3748 177.8 17.8584C178.134 17.3267 178.597 16.9083 179.189 16.6045C179.797 16.3007 180.488 16.1495 181.263 16.1494Z" fill="#2845C1"/>
<path fill-rule="evenodd" clip-rule="evenodd" d="M200.338 16.1494C201.128 16.1494 201.842 16.2779 202.48 16.5361C203.118 16.7943 203.665 17.1519 204.12 17.6074C204.591 18.0631 204.948 18.6028 205.191 19.2256C205.434 19.8483 205.556 20.524 205.556 21.2529C205.556 21.5264 205.541 21.7925 205.511 22.0508C205.489 22.2378 205.463 22.4009 205.432 22.54C205.413 22.6282 205.334 22.6885 205.244 22.6885H197.246C197.13 22.6885 197.038 22.7871 197.05 22.9026C197.114 23.5066 197.26 24.0277 197.49 24.4658C197.809 25.0733 198.257 25.5292 198.834 25.833C199.411 26.1368 200.065 26.2891 200.794 26.2891C201.477 26.2891 202.093 26.1523 202.64 25.8789C203.132 25.6392 203.537 25.329 203.855 24.949C203.928 24.8619 204.057 24.8441 204.146 24.9149L205.633 26.1001C205.717 26.1673 205.733 26.2896 205.666 26.3739C205.151 27.0166 204.499 27.5352 203.71 27.9297C202.859 28.3397 201.895 28.5449 200.816 28.5449C199.48 28.5449 198.34 28.2632 197.398 27.7012C196.457 27.124 195.736 26.3645 195.234 25.4229C194.733 24.481 194.482 23.4556 194.482 22.3467C194.482 21.481 194.611 20.6759 194.869 19.9316C195.143 19.1873 195.53 18.5337 196.031 17.9717C196.532 17.3945 197.148 16.9469 197.877 16.6279C198.606 16.309 199.427 16.1494 200.338 16.1494ZM200.27 18.2227C199.601 18.2227 199.017 18.375 198.516 18.6787C198.03 18.9825 197.657 19.4301 197.398 20.0225C197.315 20.2094 197.246 20.4111 197.19 20.6269C197.159 20.7497 197.254 20.8662 197.38 20.8662H202.886C202.999 20.8662 203.091 20.7726 203.079 20.6603C203.041 20.3 202.933 19.9584 202.754 19.6357C202.541 19.2105 202.229 18.8686 201.819 18.6104C201.409 18.3521 200.892 18.2227 200.27 18.2227Z" fill="#2845C1"/>
<path d="M229.402 16.1494C230.238 16.1494 231.013 16.3317 231.727 16.6963C232.391 17.0285 232.923 17.4426 233.323 17.9389C233.388 18.0203 233.374 18.1384 233.295 18.2062L231.891 19.404C231.802 19.4795 231.668 19.4635 231.595 19.3731C231.336 19.054 231.038 18.7844 230.701 18.5645C230.306 18.3062 229.873 18.1768 229.402 18.1768C229.068 18.1768 228.779 18.2379 228.536 18.3594C228.308 18.4809 228.134 18.6405 228.013 18.8379C227.906 19.0354 227.853 19.256 227.853 19.499C227.853 19.8634 227.982 20.1672 228.24 20.4102C228.514 20.638 228.863 20.8358 229.288 21.0029C229.713 21.17 230.162 21.3523 230.633 21.5498C231.119 21.7321 231.575 21.96 232 22.2334C232.425 22.4916 232.767 22.8408 233.025 23.2812C233.299 23.7065 233.435 24.2455 233.436 24.8984C233.436 25.6729 233.246 26.3341 232.866 26.8809C232.502 27.4125 232.015 27.8227 231.407 28.1113C230.8 28.3999 230.131 28.5449 229.402 28.5449C228.415 28.5449 227.556 28.3626 226.827 27.998C226.155 27.6481 225.562 27.1879 225.045 26.6187C224.971 26.5377 224.98 26.4126 225.062 26.3403L226.465 25.1054C226.55 25.0299 226.681 25.0416 226.756 25.1281C227.086 25.5112 227.452 25.8302 227.853 26.084C228.308 26.3726 228.818 26.5166 229.38 26.5166C229.911 26.5166 230.314 26.3797 230.587 26.1064C230.875 25.8179 231.02 25.4686 231.021 25.0586C231.021 24.6788 230.884 24.3743 230.61 24.1465C230.352 23.9187 230.01 23.7217 229.585 23.5547C229.16 23.3876 228.704 23.2125 228.218 23.0303C227.747 22.8328 227.298 22.5976 226.873 22.3242C226.448 22.0509 226.099 21.7015 225.825 21.2764C225.567 20.8359 225.438 20.2734 225.438 19.5898C225.438 18.952 225.604 18.3748 225.938 17.8584C226.273 17.3267 226.737 16.9083 227.329 16.6045C227.937 16.3008 228.628 16.1494 229.402 16.1494Z" fill="#2845C1"/>
<path fill-rule="evenodd" clip-rule="evenodd" d="M156.731 16.1494C157.78 16.1494 158.668 16.339 159.397 16.7188C160.127 17.0985 160.674 17.6226 161.038 18.291C161.418 18.9594 161.607 19.7114 161.607 20.5469V27.8889C161.607 27.9993 161.518 28.0889 161.407 28.0889H159.302C159.191 28.0889 159.102 27.9993 159.102 27.8889V27.1287C159.102 27.0343 158.979 26.9896 158.914 27.0573C158.812 27.1624 158.7 27.2632 158.577 27.3594C158.167 27.6936 157.688 27.9525 157.142 28.1348C156.595 28.3322 156.04 28.4307 155.479 28.4307C154.355 28.4307 153.436 28.127 152.722 27.5195C152.008 26.9119 151.65 26.0988 151.65 25.0811C151.65 24.2154 151.977 23.4786 152.63 22.8711C153.283 22.2635 154.226 21.8606 155.456 21.6631L158.935 21.0722C159.031 21.0559 159.102 20.9726 159.102 20.875V20.5469C159.102 19.8634 158.873 19.3319 158.418 18.9521C157.962 18.5572 157.37 18.3594 156.641 18.3594C156.048 18.3594 155.509 18.4888 155.022 18.7471C154.611 18.9727 154.258 19.2735 153.962 19.6498C153.892 19.7393 153.763 19.7597 153.672 19.6906L152.146 18.5231C152.06 18.4575 152.042 18.3352 152.108 18.2498C152.593 17.6249 153.208 17.1298 153.952 16.7646C154.772 16.3546 155.699 16.1494 156.731 16.1494ZM156.094 23.3262C155.41 23.4325 154.916 23.6303 154.612 23.9189C154.309 24.1923 154.157 24.5417 154.157 24.9668C154.157 25.3921 154.317 25.7422 154.636 26.0156C154.97 26.2888 155.418 26.4257 155.979 26.4258C156.678 26.4258 157.294 26.2662 157.825 25.9473C158.329 25.645 158.743 25.2464 159.07 24.7533C159.091 24.7213 159.102 24.6837 159.102 24.6454V23.064C159.102 22.9405 158.991 22.8465 158.869 22.8667L156.094 23.3262Z" fill="#2845C1"/>
<path d="M220.247 16.4045C220.247 16.5149 220.337 16.6045 220.447 16.6045H223.761C223.871 16.6045 223.961 16.694 223.961 16.8045V18.6604C223.961 18.7708 223.871 18.8604 223.761 18.8604H220.447C220.337 18.8604 220.247 18.9499 220.247 19.0604V24.0332C220.247 24.5344 220.331 24.9292 220.498 25.2178C220.665 25.5063 220.9 25.7188 221.204 25.8555C221.508 25.977 221.865 26.0381 222.275 26.0381C222.67 26.0381 223.004 26.0153 223.277 25.9697C223.433 25.9351 223.577 25.898 223.708 25.8584C223.842 25.8178 223.983 25.9155 223.983 26.0558V27.8446C223.983 27.9237 223.937 27.9959 223.863 28.0246C223.62 28.1194 223.349 28.1866 223.05 28.2256C222.716 28.2863 222.321 28.3164 221.865 28.3164C220.954 28.3164 220.186 28.1569 219.563 27.8379C218.956 27.5037 218.493 27.0251 218.174 26.4023C217.87 25.7644 217.718 24.9748 217.718 24.0332V19.0604C217.718 18.9499 217.628 18.8604 217.518 18.8604H215.776C215.666 18.8604 215.576 18.7708 215.576 18.6604V16.8045C215.576 16.694 215.666 16.6045 215.776 16.6045H217.518C217.628 16.6045 217.718 16.5149 217.718 16.4045V13.9334C217.718 13.8229 217.807 13.7334 217.918 13.7334H220.047C220.158 13.7334 220.247 13.8229 220.247 13.9334V16.4045Z" fill="#2845C1"/>
<path d="M143.92 14.468C143.92 14.5784 143.83 14.668 143.72 14.668H139.061C138.951 14.668 138.861 14.7575 138.861 14.868V27.8889C138.861 27.9993 138.772 28.0889 138.661 28.0889H136.259C136.148 28.0889 136.059 27.9993 136.059 27.8889V14.868C136.059 14.7575 135.969 14.668 135.859 14.668H131.2C131.09 14.668 131 14.5784 131 14.468V12.3387C131 12.2282 131.09 12.1387 131.2 12.1387H143.72C143.83 12.1387 143.92 12.2282 143.92 12.3387V14.468Z" fill="#2845C1"/>
<path d="M149.989 16.377C150.187 16.377 150.369 16.3925 150.536 16.4229C150.649 16.4434 150.755 16.4671 150.854 16.4943C150.937 16.5172 150.992 16.5942 150.992 16.6803V18.7409C150.992 18.871 150.87 18.9665 150.742 18.9406C150.638 18.9194 150.532 18.9005 150.423 18.8838C150.241 18.8534 150.02 18.8379 149.762 18.8379C149.291 18.8379 148.866 18.9137 148.486 19.0654C148.122 19.2173 147.803 19.4226 147.529 19.6807C147.327 19.8602 147.15 20.0566 146.998 20.2694C146.892 20.4168 146.846 20.5967 146.846 20.778V27.8889C146.846 27.9993 146.756 28.0889 146.646 28.0889H144.539C144.428 28.0889 144.339 27.9993 144.339 27.8889V16.8045C144.339 16.694 144.428 16.6045 144.539 16.6045H146.646C146.756 16.6045 146.846 16.694 146.846 16.8045V17.609C146.846 17.7001 146.958 17.7446 147.022 17.6797C147.15 17.5508 147.28 17.4279 147.415 17.3115C147.749 17.0229 148.129 16.795 148.555 16.6279C148.98 16.461 149.458 16.377 149.989 16.377Z" fill="#2845C1"/>
<path d="M170.55 16.1494C171.4 16.1494 172.161 16.339 172.829 16.7188C173.513 17.0985 174.051 17.6611 174.446 18.4053C174.841 19.1496 175.039 20.084 175.039 21.208V27.8889C175.039 27.9993 174.95 28.0889 174.839 28.0889H172.71C172.599 28.0889 172.51 27.9993 172.51 27.8889V21.2988C172.51 20.4178 172.282 19.7341 171.826 19.248C171.371 18.7468 170.748 18.4962 169.958 18.4961C169.457 18.4961 169.016 18.5945 168.636 18.792C168.256 18.9743 167.93 19.2104 167.656 19.499C167.46 19.7183 167.285 19.9464 167.133 20.1832C167.039 20.3295 166.995 20.5017 166.995 20.6757V27.8889C166.995 27.9993 166.906 28.0889 166.795 28.0889H164.689C164.579 28.0889 164.489 27.9993 164.489 27.8889V16.8045C164.489 16.694 164.579 16.6045 164.689 16.6045H166.795C166.906 16.6045 166.995 16.694 166.995 16.8045V17.4025C166.995 17.4926 167.106 17.538 167.172 17.4761C167.549 17.1203 167.984 16.8221 168.477 16.582C169.069 16.2934 169.76 16.1494 170.55 16.1494Z" fill="#2845C1"/>
<path d="M192.5 11C193.032 11 193.51 11.0602 193.936 11.1816C194.303 11.2829 194.639 11.4056 194.943 11.5492C195.042 11.5962 195.08 11.7168 195.03 11.8146L194.142 13.5354C194.083 13.649 193.934 13.6788 193.827 13.6095C193.693 13.5239 193.547 13.4511 193.389 13.3916C193.146 13.3006 192.865 13.2549 192.546 13.2549C191.999 13.2549 191.551 13.4372 191.201 13.8018C190.867 14.1511 190.7 14.6379 190.7 15.2607V16.4045C190.7 16.5149 190.79 16.6045 190.9 16.6045H194.214C194.325 16.6045 194.414 16.694 194.414 16.8045V18.6604C194.414 18.7708 194.325 18.8604 194.214 18.8604H190.9C190.79 18.8604 190.7 18.9499 190.7 19.0604V27.8889C190.7 27.9993 190.611 28.0889 190.5 28.0889H188.371C188.26 28.0889 188.171 27.9993 188.171 27.8889V19.0604C188.171 18.9499 188.081 18.8604 187.971 18.8604H186.229C186.119 18.8604 186.029 18.7708 186.029 18.6604V16.8045C186.029 16.694 186.119 16.6045 186.229 16.6045H187.971C188.081 16.6045 188.171 16.5149 188.171 16.4045V15.3291C188.171 14.509 188.346 13.7723 188.695 13.1191C189.045 12.4661 189.538 11.9491 190.176 11.5693C190.814 11.1896 191.589 11.0001 192.5 11Z" fill="#2845C1"/>
<path d="M213.556 16.377C213.753 16.377 213.935 16.3925 214.103 16.4229C214.215 16.4434 214.322 16.4671 214.421 16.4943C214.504 16.5172 214.559 16.5942 214.559 16.6803V18.7409C214.559 18.871 214.436 18.9666 214.309 18.9407C214.204 18.9194 214.097 18.9006 213.988 18.8838C213.806 18.8534 213.586 18.8379 213.328 18.8379C212.857 18.8379 212.431 18.9135 212.052 19.0654C211.687 19.2173 211.368 19.4225 211.095 19.6807C210.893 19.8603 210.715 20.0566 210.563 20.2695C210.458 20.4169 210.411 20.5967 210.411 20.778V27.8889C210.411 27.9993 210.322 28.0889 210.211 28.0889H208.105C207.995 28.0889 207.905 27.9993 207.905 27.8889V16.8045C207.905 16.694 207.995 16.6045 208.105 16.6045H210.211C210.322 16.6045 210.411 16.694 210.411 16.8045V17.6099C210.411 17.701 210.524 17.7454 210.588 17.6805C210.715 17.5513 210.846 17.4281 210.98 17.3115C211.315 17.0229 211.695 16.795 212.12 16.6279C212.545 16.4608 213.024 16.377 213.556 16.377Z" fill="#2845C1"/>
</svg>
